<svg xmlns="http://www.w3.org/2000/svg" width="31.017" height="43.678" viewBox="0 0 31.017 43.678">
  <g id="Group_733" data-name="Group 733" transform="translate(-1567.224 544.154)">
    <path id="Path_7130" data-name="Path 7130" d="M1582.774-360.373q6.9,0,13.792,0a1.524,1.524,0,0,1,1.667,1.532,1.516,1.516,0,0,1-1.665,1.532q-5.059.013-10.117.008-8.69,0-17.38-.007a2.611,2.611,0,0,1-.888-.124,1.485,1.485,0,0,1-.932-1.708,1.534,1.534,0,0,1,1.557-1.234q3.74-.007,7.48,0h6.486Z" transform="translate(0 -167.886)" fill="#fca120"/>
    <path id="Path_7131" data-name="Path 7131" d="M1582.835-267.781q6.81,0,13.62,0a2.826,2.826,0,0,1,.892.1,1.489,1.489,0,0,1,.974,1.723,1.515,1.515,0,0,1-1.509,1.235c-1.629.009-3.257,0-4.886,0q-11.48,0-22.959,0a1.522,1.522,0,0,1-1.62-1.354,1.492,1.492,0,0,1,1.523-1.7c1.311-.022,2.623-.009,3.935-.009h10.031Z" transform="translate(-0.106 -252.473)" fill="#fca120"/>
    <path id="Path_7132" data-name="Path 7132" d="M1649.471-156.275c1.1-1.106,2.088-2.107,3.083-3.105q1.725-1.73,3.457-3.453a1.529,1.529,0,0,1,2.263-.084,1.541,1.541,0,0,1-.109,2.268q-3.753,3.768-7.513,7.529a1.513,1.513,0,0,1-2.2.026q-3.812-3.8-7.605-7.621a1.531,1.531,0,0,1-.042-2.207,1.527,1.527,0,0,1,2.237.056q3.015,3.008,6.018,6.028A5.022,5.022,0,0,1,1649.471-156.275Z" transform="translate(-66.803 -347.846)" fill="#fca120"/>
    <path id="Path_7133" data-name="Path 7133" d="M1649.542-540.445c-1.222,1.232-2.4,2.418-3.574,3.6q-1.448,1.455-2.9,2.9a1.557,1.557,0,0,1-2.241.086,1.536,1.536,0,0,1,.046-2.237q3.78-3.8,7.572-7.586a1.529,1.529,0,0,1,2.237.016q3.754,3.764,7.5,7.531a1.545,1.545,0,0,1,.352,1.923,1.534,1.534,0,0,1-2.466.3c-1.11-1.09-2.2-2.2-3.3-3.3C1651.709-538.264,1650.654-539.327,1649.542-540.445Z" transform="translate(-66.816)" fill="#fca120"/>
  </g>
</svg>
