<svg xmlns="http://www.w3.org/2000/svg" width="20.916" height="27.889" viewBox="0 0 20.916 27.889">
  <path id="Icon_awesome-file-csv" data-name="Icon awesome-file-csv" d="M12.2,7.408V0H1.307A1.3,1.3,0,0,0,0,1.307V26.581a1.3,1.3,0,0,0,1.307,1.307h18.3a1.3,1.3,0,0,0,1.307-1.307V8.715H13.508A1.311,1.311,0,0,1,12.2,7.408ZM6.972,15.252a.436.436,0,0,1-.436.436H6.1a.871.871,0,0,0-.872.872V18.3a.871.871,0,0,0,.872.872h.436a.436.436,0,0,1,.436.436v.872a.436.436,0,0,1-.436.436H6.1A2.615,2.615,0,0,1,3.486,18.3V16.559A2.615,2.615,0,0,1,6.1,13.944h.436a.436.436,0,0,1,.436.436Zm2.411,5.665H8.715a.436.436,0,0,1-.436-.436v-.872a.436.436,0,0,1,.436-.436h.668c.324,0,.567-.191.567-.361a.288.288,0,0,0-.115-.209L8.643,17.581a2.022,2.022,0,0,1-.726-1.533,2.216,2.216,0,0,1,2.31-2.1h.667a.436.436,0,0,1,.436.436v.872a.436.436,0,0,1-.436.436h-.668c-.324,0-.567.191-.567.361a.288.288,0,0,0,.115.209l1.192,1.022a2.022,2.022,0,0,1,.726,1.533A2.215,2.215,0,0,1,9.384,20.916Zm4.561-6.536v1.133a5.938,5.938,0,0,0,.872,3.1,5.936,5.936,0,0,0,.872-3.1V14.38a.436.436,0,0,1,.436-.436h.872a.436.436,0,0,1,.436.436v1.133a7.492,7.492,0,0,1-1.976,5.125.871.871,0,0,1-1.277,0A7.492,7.492,0,0,1,12.2,15.513V14.38a.436.436,0,0,1,.436-.436h.872A.436.436,0,0,1,13.944,14.38Zm6.591-8.661L15.2.381A1.306,1.306,0,0,0,14.277,0h-.332V6.972h6.972V6.64A1.3,1.3,0,0,0,20.535,5.719Z" fill="#fca120"/>
</svg>
