<svg xmlns="http://www.w3.org/2000/svg" width="20.916" height="27.889" viewBox="0 0 20.916 27.889">
  <path id="Icon_awesome-file-pdf" data-name="Icon awesome-file-pdf" d="M9.908,13.95A5.255,5.255,0,0,1,9.8,11.4C10.257,11.4,10.213,13.405,9.908,13.95Zm-.093,2.571a25.134,25.134,0,0,1-1.547,3.415,20.057,20.057,0,0,1,3.426-1.193A7.056,7.056,0,0,1,9.815,16.521Zm-5.126,6.8c0,.044.719-.294,1.9-2.19A7.529,7.529,0,0,0,4.69,23.318Zm8.819-14.6h7.408V26.581a1.3,1.3,0,0,1-1.307,1.307H1.307A1.3,1.3,0,0,1,0,26.581V1.307A1.3,1.3,0,0,1,1.307,0H12.2V7.408A1.311,1.311,0,0,0,13.508,8.715Zm-.436,9.358a5.467,5.467,0,0,1-2.326-2.93,7.829,7.829,0,0,0,.338-3.5,1.364,1.364,0,0,0-2.6-.37,9.057,9.057,0,0,0,.441,4.194A51.148,51.148,0,0,1,6.7,20.143c-.005,0-.005.005-.011.005-1.476.757-4.009,2.424-2.969,3.7a1.693,1.693,0,0,0,1.171.545c.975,0,1.945-.98,3.328-3.366a31.049,31.049,0,0,1,4.3-1.264,8.255,8.255,0,0,0,3.486,1.062,1.41,1.41,0,0,0,1.073-2.364c-.757-.741-2.958-.528-4.009-.392ZM20.535,5.719,15.2.381A1.306,1.306,0,0,0,14.271,0h-.327V6.972h6.972V6.64A1.3,1.3,0,0,0,20.535,5.719ZM16.5,19.625c.223-.147-.136-.648-2.331-.49C16.188,20,16.5,19.625,16.5,19.625Z" fill="#fca120"/>
</svg>
