<svg xmlns="http://www.w3.org/2000/svg" width="26.106" height="29.448" viewBox="0 0 26.106 29.448">
  <path id="Path_7127" data-name="Path 7127" d="M-504.674-756.294h-19.553a1.336,1.336,0,0,1-.921-1.445c.022-1.743.007-3.487.007-5.231v-.344c-.246,0-.447,0-.647,0a1.655,1.655,0,0,1-1.7-1.684q-.021-4.268,0-8.536a1.646,1.646,0,0,1,1.713-1.672c.207,0,.414,0,.638,0v-.381c0-2.932.012-5.863-.008-8.8a1.272,1.272,0,0,1,1.344-1.358c4.532.021,9.065.013,13.6.005a.907.907,0,0,1,.747.336q2.7,3.1,5.414,6.184a1.069,1.069,0,0,1,.288.753c-.007.977,0,1.954,0,2.932v.323c.239,0,.438,0,.638,0a1.647,1.647,0,0,1,1.713,1.672q.024,4.268,0,8.536a1.653,1.653,0,0,1-1.7,1.684c-.208,0-.416,0-.647,0v.344c0,1.744-.015,3.488.007,5.231A1.337,1.337,0,0,1-504.674-756.294Zm-.281-18.924v-2.871h-4.882c-.565,0-.761-.2-.762-.758q0-2.687,0-5.374v-.345h-13.353v9.348Zm-19,17.432h19V-763.3h-19Zm14.944-8.19c.585,0,1.109.006,1.633-.008.067,0,.157-.1.193-.168.174-.351.335-.709.5-1.066.179-.4.352-.8.541-1.225.063.12.108.2.15.289.329.659.654,1.32.99,1.976.042.082.136.191.209.193.532.016,1.066.009,1.646.009-.072-.135-.117-.226-.168-.313-.566-.977-1.128-1.956-1.7-2.927a.419.419,0,0,1,0-.492c.55-.93,1.085-1.87,1.625-2.807.046-.08.086-.163.148-.281-.563,0-1.087-.006-1.611.007a.293.293,0,0,0-.2.156c-.206.431-.4.867-.594,1.3-.128.291-.246.585-.389.926-.077-.156-.127-.257-.175-.358-.289-.614-.574-1.23-.869-1.841-.036-.075-.116-.183-.178-.185-.541-.015-1.082-.008-1.659-.008.065.123.107.207.153.288.536.95,1.068,1.9,1.612,2.847a.4.4,0,0,1,0,.464C-507.773-768.148-508.372-767.091-509.009-765.977Zm-16.761-6.821a.867.867,0,0,0,.033.1c.563,1,1.121,2,1.694,3a.462.462,0,0,1,.005.539c-.563.956-1.107,1.924-1.657,2.887-.049.086-.093.174-.16.3.544,0,1.031-.008,1.518,0a.3.3,0,0,0,.322-.212c.293-.675.6-1.346.9-2.017.032-.071.071-.139.122-.237.388.775.752,1.511,1.125,2.243.043.084.129.205.2.207.541.017,1.083.01,1.663.01-.069-.13-.111-.213-.158-.294-.57-.985-1.136-1.973-1.716-2.953a.417.417,0,0,1,.005-.492c.545-.922,1.076-1.853,1.611-2.782.05-.086.089-.178.15-.3-.53,0-1.017.007-1.5,0a.29.29,0,0,0-.321.2c-.276.651-.565,1.3-.85,1.943-.031.07-.069.136-.118.232-.355-.752-.685-1.463-1.028-2.167-.042-.086-.149-.2-.23-.2C-524.695-772.806-525.22-772.8-525.771-772.8Zm15.927.267a3.726,3.726,0,0,0-3.6.2,1.869,1.869,0,0,0-.409,2.451,2.885,2.885,0,0,0,1.31.942,8.058,8.058,0,0,1,1.086.51.636.636,0,0,1-.1,1.162,1.63,1.63,0,0,1-.78.115c-.534-.067-1.059-.2-1.612-.315-.07.284-.142.63-.244.966-.051.169-.01.246.146.3a4.318,4.318,0,0,0,3.353-.016,1.9,1.9,0,0,0,.28-3.327,8.7,8.7,0,0,0-1.1-.549,7.457,7.457,0,0,1-.8-.391.565.565,0,0,1,.079-1.031,1.145,1.145,0,0,1,.552-.119c.5.047.992.138,1.522.217Zm-7.777,5.264v-5.515h-1.521V-766h4.22v-1.268Z" transform="translate(527.503 785.742)" fill="#fca120"/>
</svg>
