<?xml version="1.0" encoding="utf-8"?>
<!-- Generator: Adobe Illustrator 24.1.1, SVG Export Plug-In . SVG Version: 6.00 Build 0)  -->
<svg version="1.1" id="Layer_1" xmlns="http://www.w3.org/2000/svg" xmlns:xlink="http://www.w3.org/1999/xlink" x="0px" y="0px"
	 viewBox="0 0 1535.8 1535.8" style="enable-background:new 0 0 1535.8 1535.8;" xml:space="preserve">
<style type="text/css">
	.st0{fill:#FE0000;}
	.st1{fill:#020000;}
	.st2{fill:#F10000;}
</style>
<rect class="st0" width="1535.8" height="1535.8"/>
<path class="st0" d="M767.8,1227.8c-212.7,0-425.4,0-638.1,0.1c-5.2,0-5.9-1.5-5.9-6.2c0.1-302.7,0.1-605.4,0-908
	c0-5.2,1.5-5.9,6.2-5.9c425.2,0.1,850.3,0.1,1275.5-0.1c5.9,0,6.6,1.6,6.6,6.9c-0.1,302.5-0.1,604.9,0,907.4c0,5.2-1.5,5.9-6.2,5.9
	C1193.2,1227.8,980.5,1227.8,767.8,1227.8z M598,887c1.4-1.7,3.2-1.9,4.9-2.3c15-4.3,30.2-7.2,45.4-10.6c6.4-1.4,10.9-0.8,15.7,4.1
	c11.8,12,15,12.9,24.9-4.1c7.7-13.2,13.9-27.3,23.2-39.6c4.1-5.5,8.7-10.4,15.4-12.9c7.5-2.9,13.7,0.4,15.5,8.2
	c1.3,5.7,0.7,11.3-0.7,16.9c-5.5,21.6-19.9,36.4-37,49.4c-8.6,6.5-17.6,10.6-28.6,7.7c-1.4-0.4-3.1-0.3-4.6,0c-4,0.8-9,1.2-10,6
	c-1,4.9,3,8,6.8,10.3c11.6,7.1,25,5.8,35.1-3.1c2.1-1.9,4.3-3.8,6.3-5.7c2.6-2.5,5.5-4.1,8.7-1.5c3.3,2.7,3,6.4,0.7,9.4
	c-9.8,12.1-20.4,23-37.5,23.7c-1.9,0.1-3.9,0.7-5.7,1.4c-5.5,2.2-6.3,6.1-1.8,9.9c5.8,5,12.8,6.4,20.3,5
	c11.6-2.2,19.9-9.6,27.6-17.9c2-2.1,4.3-5.6,7.6-3.6c2.8,1.7,2.1,5.5,1.2,8.4c-4.3,13.8-11.6,27.5-30.5,27.7c-2.6,0-5.4,0.3-6.3,3.5
	c-0.8,2.8,0.3,5.1,2.1,7.3c6.8,8.3,18.1,9.3,26.9,2c7.1-5.9,11.3-13.8,15.3-21.9c1.5-3,2.4-7.5,6.8-6.7c4.3,0.8,4.8,5.3,5.3,9
	c0.3,2.5-0.1,5.2-0.6,7.8c-1.8,9.3-6.5,17.1-12.7,24.1c-6.2,6.9-6.5,8.2-1.5,16.4c7.2,11.9,16.4,22.2,25.6,32.4
	c6.5,7.2,6.6,7.2,13.1-0.1c9.6-10.8,19.3-21.5,26.6-34.1c3-5.1,3.4-9.1-1.6-13.8c-7.3-6.8-11.9-15.7-13.9-25.6
	c-1-4.6-0.8-9.2,1.7-13.4c2.2-3.7,5-4.2,7.7-0.5c1.4,1.9,2.2,4.2,3.3,6.4c3.7,7.5,7.8,14.7,14.4,20.1c8.1,6.7,17.6,6.5,25-0.2
	c2.7-2.4,5-5.2,3.8-9.2c-1.1-3.8-4.8-3.3-7.7-3.6c-15.8-1.9-27.7-13.8-29.5-29.5c-0.3-2.3-0.7-5.2,1.6-6.6c2.6-1.5,4.6,0.7,6.2,2.4
	c5.3,5.5,10.6,11.1,17.4,14.9c8.4,4.7,17.1,6.7,26.4,2.7c4-1.8,8.9-3.7,7.9-9c-0.9-5-6.1-4.9-10.1-5.7c-1.5-0.3-3.1-0.1-4.6-0.4
	c-14.9-2.7-24.6-12.7-33.2-23.9c-2.1-2.7-2.1-6.4,1.1-8.9c3-2.3,5.7-1.2,8.2,1.2c1.7,1.7,3.7,3.1,5.3,4.9c9.5,10.4,20.8,10.7,33.1,6
	c6.5-2.5,11.4-8.3,10.4-12.1c-1-3.9-8.1-7.3-14.8-5.8c-10.9,2.4-19.7-1-28.1-7.4c-7-5.4-13.8-10.9-19.6-17.4
	c-9.4-10.7-16.7-22.5-18.6-36.9c-1-7.6-2.4-16.1,6.2-20.3c8.5-4.1,14.5,2,20,7.4c7.3,7.1,12,16.1,16.9,24.9
	c5.2,9.1,10,18.4,15.6,27.3c4.2,6.7,9.4,7.9,13.8,2.4c8.8-10.9,19.1-11.9,31.3-7.8c4.1,1.4,8.6,1.7,12.8,2.9c9.4,2.5,19.1,4,29,8
	c-6,2.2-11.1,4.2-16.3,5.8c-2.8,0.9-5.3,2.5-8.8,1.8c-11.6-2.6-25.6,10-24.8,22c0.1,2.1,0.4,4.1,2.5,6.1c2-8.1,6.1-11.1,14.5-9.2
	c5.9,1.4,11.8-1.4,14.6-7.6c1-2.3,2.4-3.3,4.5-4.2c23.5-10.3,23.4-10.3,45.8,2.4c1.5,0.9,3.1,1.7,4.6,2.6c1.3,0.8,2.4,1.6,3,3.2
	c3.4,9,6.8,11.6,16.1,10.4c5.4-0.7,8.3,1.6,10.8,5.4c1.4,2.1,2.6,4.4,4.1,7.1c2.3-5.1,2.6-9.6,0-14.1c-1.1-1.9-2-3.6-2.3-5.9
	c-1.2-9.1-9.4-15.7-18.3-13.3c-11.1,2.9-16.4-5.8-24.2-9.9c9.6-1,19-1,28.4-1c0.4,0,0.9,0,1.3-0.1c2.2-0.2,3.6,1.1,5.2,2.3
	c5.2,3.9,11.7,5.1,16.5,1.1c5.9-4.9,11.1-4.9,17.3-0.9c-2.9-11.8-22.8-21.3-32.7-16.1c-1.1,0.6-2.5,1.3-3.1,2.4
	c-1.9,3.9-5.2,3.9-8.8,3.9c-5.9-0.1-11.8,0.1-17.7,0.3c-3.1,0.1-6.3,1-10.2-0.9c5.1-3.7,9.5-6.7,13.8-10.1c3.2-2.5,6.2-3.7,10.6-2.7
	c6,1.4,11.9-1.1,14.7-6.4c3.5-6.9,8.5-9.2,16.8-7.9c-4.2-6-8.7-7.5-14.3-5.6c-3.2,1-5.9,1.4-9.3,0c-5.5-2.3-13.5,0.7-14.9,6
	c-1.3,4.9-4.6,7-8.1,9.4c-5.4,3.7-11,7.2-16.2,11.1c-3.6,2.7-7,3.3-11.5,1.9c-13-3.9-26.1-7.3-39.2-10.8c-4.2-1.2-8.5-2.2-12.8-3.3
	c-0.4-0.8-0.7-1.6-1.1-2.4c4-3.4,8.2-6.6,12-10.2c3.6-3.4,2.3-6.4-1.8-8c-3.2-1.3-6.7-1.8-10.1-2.7c-29.3-7.1-47.5-25.8-56-54.2
	c-1.3-4.5-3.1-10.6,2.6-12.7c6.2-2.3,7,4.3,8.7,8.2c5.2,11.8,11.5,22.6,22.1,30.4c4.1,3,8.2,3.9,12.9,2.1c3.8-1.5,4.4-4.1,1.9-7.2
	c-1.2-1.5-2.7-2.9-4.2-4.1c-8.6-6.7-12.6-16-14.8-26.3c-1.1-5,0.3-9.5,5.7-11c5.2-1.4,8.3,1.9,9.8,6.5c2.1,6.4,3.8,13,6,19.4
	c4.4,12.7,12.7,22.3,23.9,29.6c2.9,1.9,6,3.6,9.6,4c5.8,0.6,12.2-2.9,13.2-7.6c1.3-6-3-8.7-7.5-10.8c-4.6-2.1-9.1-4.4-13.1-7.5
	c-8.6-6.6-13.6-15.3-14.1-26.3c-0.2-4.3-1.4-9.8,3.3-11.8c5-2.2,8.1,2.6,11.2,6c16.5,18.4,33,36.9,50.3,54.6
	c5.8,6,12.9,9.7,20.9,11.6c13.1,3.1,30-3.2,34.7-12.9c4-8.2,0.3-14.1-8.9-13.6c-4.8,0.3-9.6,0.8-14.4,0.1
	c-34.6-5.1-52-30.2-67.1-57.9c-1.6-2.9-3.3-7.5,0.4-9.4c3.6-1.8,6.1,2.4,8.2,5.1c7.2,9.2,15.6,17.2,25.2,23.8
	c11.5,8,23.7,14.1,38.2,14c6.2,0,12.3-1.1,17.2-5.3c4.5-3.9,5.9-11.4,3.2-16.2c-3.1-5.6-7.7-3.3-12.1-2.2
	c-7.8,1.9-15.6,2.1-23.4,0.4c-23.4-5.3-38.5-21.5-52.1-39.6c-0.9-1.2-1.4-2.8-1.6-4.3c-0.6-3.4-2.2-7.4,1.1-9.8
	c3.6-2.7,7-0.1,9.9,2.3c7.9,6.6,16.3,12.5,25.3,17.6c8.8,5,18,9.1,28,10.8c11.4,1.9,21-2.9,24.4-12c3.7-9.9-1.4-16.6-11.9-15.7
	c-8.5,0.7-17.1,1.5-25.5-0.4c-19-4.4-32.3-17.8-46-30.3c-2.4-2.2-4-6-1.2-8.8c2.5-2.6,5.2,0.1,7.6,1.6c14.3,8.9,29.8,14.7,46.5,16.8
	c8.1,1,16.2,1.1,23.7-2.8c7-3.7,10.3-12.8,7-19c-2.9-5.6-9.1-6.6-17.3-2.6c-0.6,0.3-1.2,0.6-1.7,0.9c-7.9,4-16.1,5.3-24.8,3.4
	c-15.6-3.5-28.6-11.9-41.1-21.1c-3.5-2.6-5.9-6.4-3-10.8c3-4.4,6.9-2.5,10.4-0.5c12.1,6.6,24.8,10.7,38.5,12.2
	c17.6,1.8,32.2-5.7,38.4-20.1c2.4-5.5,4.9-12-0.5-16.4c-5.6-4.5-10.6,0.4-15,4c-10.5,8.7-22.4,12.4-36,10.6
	c-11.6-1.6-21.8-6.5-30.7-13.8c-2.9-2.4-6.3-5.9-4.1-10.1c2-3.9,6.1-2,9.5-1.4c8.2,1.5,16.4,2.8,24.8,2.8
	c12.8,0.1,25.3-1.6,36.8-7.9c9-4.9,14.7-12.3,17-22.2c1.2-5,0.4-9.8-4.3-12.8c-4.5-2.8-8.4-0.5-11.9,2.4c-1.9,1.5-3.6,3.2-5.5,4.7
	c-16.4,14.1-36.3,15-56.4,14.3c-5.7-0.2-10-5.7-9.2-10.2c0.9-5.5,4.8-7.3,10-7.5c23.2-1.1,43-10.7,61.2-24.3
	c7.3-5.5,12.7-12.7,16.1-21.2c1.7-4.3,2.9-8.7,1.9-13.4c-1.3-6-3.4-11.8-10-13.3c-6.7-1.5-8.7,4.5-11.5,8.8
	c-15,22.9-36,37.1-62.5,43.4c-3.7,0.9-6.7,0.7-8.9-3.2c-1.8-3.1-4.9-4.5-8.5-3c-17.4,7.2-34.9,14.1-50.8,24.4
	c-7.1,4.7-10.6,11.4-10,20.1c0.3,4.6,0.6,9.2,0.2,13.8c-1,11.6-11,21-21.6,20.6c-10.6-0.4-18.4-9-19.3-21.1
	c-0.8-10.5,1.8-19.9,7.9-28.4c10.3-14.2,23.7-23.8,40.7-28.1c10.8-2.7,21.7-5.1,32.5-7.9c7.3-1.9,9.5-3.8,11.7-8.9
	c-9.9,3.6-19.6,6.6-28.7-1.1c7.2-0.8,14.3-0.4,21.4-0.9c11-0.8,21.9-2.3,30.1-10.8c3.1-3.2,5.1-7.7,1.6-11.1
	c-3.8-3.6-6.4,1.1-9.1,3.4c-0.3,0.3-0.7,0.6-0.9,0.9c-9,12.3-22.1,12.7-35.5,12.5c-1.2,0-2.9-0.1-3.2-1.6c-0.3-1.4,1.1-2.3,2.1-3.1
	c3.5-3,7.2-5.6,11.7-6.9c5.1-1.4,8.3,2.2,12.1,4.5c0.3-10.3-3.9-14.8-14-15.2c-6.3-0.2-12.9,1.8-17.4-5.1c-1.1-1.6-4.3-2-6.6-2.6
	c-9.9-2.9-19.5-1.4-28.9,2.5c-10.6,4.4-21.6,6.9-32.8,9c-3.5,0.7-7.3,0-11,2.1c4.6,5.2,10.7,7.9,15.7,12.6
	c-10,5-18.4,10.6-24.8,19.6c5.1,2,10.3-0.2,15.4,2.4c-10.1,3.6-20,6.1-27,14.5c1.4,0.5,2.4,1,3.5,1.2c6,0.8,5.6,2.9,1.8,6.7
	c-4.9,4.7-9.5,9.7-13.8,14.9c-3,3.6-5.1,4.6-8.5,0.3c-3.7-4.8-8.1-9.2-12.3-13.6c-6.1-6.4-6.1-6.3,2.2-8.9c0.3-0.1,0.5-0.5,1.1-1.1
	c-1.4-1.3-2.8-2.7-4.3-3.9c-6.4-5-14.3-7.1-22.5-10.1c5.2-2.5,10.4-0.2,15.3-2.4c-6.2-9.3-15.3-14.4-24.5-19.8
	c5.3-4.6,11.3-7.2,15.4-12.3c-3.8-2.3-7.9-1.7-11.8-2.2c-14.5-1.9-27.7-8.1-41.6-11.6c-9.9-2.5-20-1.9-28,4.8
	c-3.2,2.8-5.8,3.6-9.5,3.4c-2.6-0.2-5.3-0.2-7.9,0.1c-8.6,0.9-12.3,5.7-11.7,14.7c9.7-6.1,16.1-5.3,24.1,3c0.9,0.9,2.4,1.8,1.7,3.2
	c-0.6,1.3-2.2,1.3-3.5,1.3c-13.4,0.2-26.5-0.4-35.4-12.7c-1.1-1.6-2.7-3-4.3-4c-4-2.6-6.7-1.1-6.9,3.7c-0.2,5.6,3.6,8.8,7.7,11.3
	c9.7,5.9,20.6,6.9,31.6,7.1c5.1,0.1,10.2-1.5,15.6,0.2c-6.1,6.5-10.8,6.8-29.9,1.8c2.8,5.2,7.4,7.2,12.2,8.5c7.6,2,15.3,3.8,23,5.4
	c20.7,4.2,38.3,13.2,50.8,31c6.5,9.3,8.9,19.4,7.5,30.5c-1.3,9.9-7.9,17.2-16.7,18.7c-8.6,1.4-17.2-3.7-21.7-12.6
	c-3-6-2.9-12.4-2.1-18.6c1.4-11.7-3.4-19.8-13.4-25.5c-14.8-8.5-30.6-15.1-46.3-21.7c-3.7-1.6-7.3-0.9-9.2,2.5
	c-2.6,4.5-6,4.2-10,3.2c-12.5-2.9-24.1-8-34.6-15.3c-11.9-8.2-21.5-18.5-28.9-30.9c-5-8.4-12.2-8-17.2,0.4c-1.2,2.1-2.1,4.3-2.4,6.7
	c-1.6,12.3,4.3,21.9,12.5,29.7c18.3,17.5,40.3,27.5,65.6,29.5c5.6,0.4,10.1,1.7,10.9,8c0.6,4.9-4.5,10-10.9,10.1
	c-21.6,0.3-42.6-1.6-59-18.2c-3.6-3.7-8.2-6.8-13.4-3.2c-5.3,3.7-5.1,9.1-3.4,14.8c4.4,14.8,15.8,21.5,29.5,25.2
	c16,4.4,32.1,3,48.2,0c3.5-0.7,8-2.8,9.9,1.7c1.7,4-1.7,7.3-4.5,10.1c-0.9,0.9-2.1,1.6-3.2,2.4c-20.4,13.9-45.5,17.3-65.7-1.3
	c-3.4-3.2-8-5.6-12.5-2.5c-4.3,2.9-3,7.8-2.4,12.1c0.1,0.8,0.6,1.6,0.9,2.5c5.9,15.9,20.9,24.2,39.6,22.1
	c13.9-1.5,26.8-5.9,39.1-12.6c3.3-1.8,6.7-2.8,9.4,0.7c2.5,3.4,1.2,6.6-1.2,9.6c-0.7,0.8-1.5,1.7-2.4,2.3
	c-10.4,7.4-21.1,14.2-33.1,18.5c-11.5,4.1-22.7,4-33.5-2.2c-1.5-0.9-3.2-1.4-4.9-1.9c-4-1.2-7.9-1.1-11,2.1
	c-3.2,3.3-3.6,7.3-2.3,11.6c2,6.8,6.7,10.5,13.5,12c12.9,2.8,25.2,0,37.4-3.7c10.1-3,19.5-7.7,28.4-13.4c1.9-1.2,4.1-2.5,6-0.9
	c2.2,1.8,1.3,4.4,0.5,6.7c-0.4,1.2-1.2,2.4-2.2,3.2c-10.3,9.2-20.5,18.4-32.8,25c-12,6.4-24.9,6.1-37.8,4.9
	c-11.1-1-16.3,6.3-11.8,16.6c3.9,8.9,13.4,13.1,24.9,10.8c19.3-3.8,34.9-14.6,50.1-26.3c3.7-2.8,7.7-8.1,12.4-3.8
	c4.2,3.8,1.1,9.4-0.9,14c-0.4,1-1.1,1.9-1.8,2.7c-5.5,6.8-11.2,13.4-17.9,19.2c-17.1,14.9-36,22.9-59.1,16c-5.8-1.7-9.2,1.2-9.8,7.3
	c-0.8,7.9,3.3,13.6,11.6,16c10.6,3.1,20.9,1.3,30.8-2.9c16.9-7.2,30.5-18.6,42-32.8c2.4-2.9,5.1-8,9.1-5.6c3.7,2.3,1.1,7.4-0.4,10.8
	c-4.8,10.6-12,19.8-19.5,28.7c-16.2,19.1-35.7,30.5-61.9,27.5c-8.7-1-12.4,5.4-8.6,13.3c1.2,2.6,3,4.7,5.4,6.5
	c14.9,11.3,35.8,9.8,49.6-4.4c14.2-14.6,27.8-29.8,41.6-44.7c4.6-5,8.8-10.4,13.9-14.8c5.1-4.5,9.1-2.7,9.8,4
	c1.2,11-1.9,20.8-9.8,28.8c-5,5-11.1,8.4-17.5,11.3c-4.3,2-8.6,4.7-7.2,10.3c1.4,5.7,6.3,7.5,11.6,8c3.1,0.2,6-1,8.7-2.6
	c12.6-7.3,21.7-17.6,26.5-31.4c2.1-6.2,3.7-12.6,5.8-18.8c1.6-4.9,4.8-8.4,10.2-6.7c5.1,1.7,6.3,6.1,5.2,11.2
	c-2.3,10.8-7,20.1-16,27.1c-2.5,1.9-6.1,4.1-3.8,8c2,3.3,5.8,3.5,9.4,3c2.4-0.3,4.4-1.6,6.4-3.1c11.6-8.5,17.9-20.7,23.2-33.6
	c1.3-3.1,2.9-6.3,7.1-5.2c3.7,1,3.7,4.4,3.7,7.5c0,1.5,0,3.1-0.5,4.6c-7.3,23.5-20.3,42-44.2,51.2c-6.3,2.4-12.9,4.2-19.5,5.7
	c-7.7,1.8-8.5,4.9-3.1,10.6c3.2,3.4,7,6.4,9.4,10.9c-10.5,2.8-20.6,5.8-30.8,8.2c-9.3,2.2-18.8,8.5-27.7,6.3
	c-8.8-2.3-16.2-10-24.1-15.4c-0.4-0.2-0.7-0.5-1.1-0.7c-1.7-1-2.7-2.3-3.3-4.5c-2-7.1-9.1-10.8-16-8.1c-3.1,1.2-5.7,1.1-8.7,0.1
	c-5.7-1.9-10.6-0.9-14.2,5.7c7.8-1.6,12.6,0.8,16.2,7.5c3.3,6.1,9.6,8,16.5,6.6c1.7-0.3,3.2-1.3,4.9,0c5.7,4.2,11.5,8.3,18.7,13.4
	c-10.5,0-19.1-0.1-27.8,0c-4,0.1-7.4-0.1-10.1-4.1c-2.1-3.2-6.2-4-10.1-3.8c-9.2,0.4-15.4,7.1-22.8,11.2c-1.7,1-2.8,3.6-2.6,6.7
	c5.9-3.6,10.9-4.8,16.4,0.4c4.1,3.8,10.5,4,14.8,0.7c5.2-4.1,10.5-3.4,16-3.4c7.2,0,14.4,0,21.6,0c0,0.6,0.1,1.3,0.1,1.9
	c-3,1.7-6,3.4-9,5.2c-4.8,2.9-9.1,5.2-15.7,3.5c-8.9-2.3-16.8,4.5-18,13.6c-0.2,1.8-0.9,3.2-1.7,4.8c-3.2,5.5-3.2,8.1,0,14.8
	c3.2-9,8.3-14.2,18.7-12.4c4.7,0.8,9.6-2.1,10.7-7c1.2-5.1,4.5-7,8.3-9.1c5.9-3.3,11.8-6.6,17.7-10c2.1-1.2,4.1-2.2,6.7-1.1
	c7.5,3.1,15,6,22.6,8.9c1.8,0.7,2.7,1.8,3.4,3.5c2.7,6.3,8.5,9.2,14.4,7.9c8.6-1.9,12.9,1.2,14.9,9.9c3.5-6.8,3.2-12.2-1.7-16.9
	c-1.5-1.4-2.3-2.8-3-4.8c-2.3-6.5-8.4-9.5-15.3-8c-2.3,0.5-4.4,1.6-7,0.6C611.3,891.6,604.7,889.4,598,887z"/>
<path class="st1" d="M598,887c6.7,2.4,13.3,4.6,19.8,7.1c2.6,1,4.7-0.1,7-0.6c6.9-1.5,13,1.5,15.3,8c0.7,1.9,1.6,3.4,3,4.8
	c4.9,4.7,5.2,10,1.7,16.9c-2.1-8.8-6.3-11.9-14.9-9.9c-5.9,1.3-11.7-1.6-14.4-7.9c-0.8-1.8-1.7-2.9-3.4-3.5
	c-7.5-2.9-15.1-5.9-22.6-8.9c-2.6-1.1-4.6-0.1-6.7,1.1c-5.9,3.4-11.8,6.7-17.7,10c-3.8,2.1-7.2,4-8.3,9.1c-1.1,4.9-6.1,7.8-10.7,7
	c-10.4-1.8-15.5,3.4-18.7,12.4c-3.2-6.7-3.2-9.3,0-14.8c0.9-1.5,1.5-2.9,1.7-4.8c1.2-9.2,9.1-15.9,18-13.6
	c6.5,1.7,10.8-0.6,15.7-3.5c3-1.8,6-3.5,9-5.2c0-0.6-0.1-1.3-0.1-1.9c-7.2,0-14.4,0-21.6,0c-5.5,0-10.8-0.8-16,3.4
	c-4.2,3.4-10.6,3.1-14.8-0.7c-5.5-5.2-10.5-4-16.4-0.4c-0.2-3,0.8-5.7,2.6-6.7c7.4-4.1,13.6-10.8,22.8-11.2
	c3.9-0.2,7.9,0.7,10.1,3.8c2.7,4,6.1,4.1,10.1,4.1c8.6-0.1,17.2,0,27.8,0c-7.2-5.1-13-9.2-18.7-13.4c-1.8-1.3-3.2-0.3-4.9,0
	c-6.9,1.4-13.2-0.5-16.5-6.6c-3.6-6.7-8.3-9.1-16.2-7.5c3.6-6.5,8.5-7.6,14.2-5.7c3,1,5.5,1.1,8.7-0.1c6.9-2.6,14,1.1,16,8.1
	c0.6,2.2,1.6,3.4,3.3,4.5c0.4,0.2,0.7,0.5,1.1,0.7c8,5.4,15.4,13.1,24.1,15.4c8.9,2.3,18.4-4,27.7-6.3c10.2-2.4,20.3-5.4,30.8-8.2
	c-2.4-4.5-6.2-7.5-9.4-10.9c-5.3-5.7-4.6-8.8,3.1-10.6c6.6-1.6,13.1-3.3,19.5-5.7c23.9-9.1,36.9-27.7,44.2-51.2
	c0.4-1.4,0.5-3,0.5-4.6c0-3.1,0-6.6-3.7-7.5c-4.2-1.1-5.8,2.1-7.1,5.2c-5.3,12.9-11.6,25-23.2,33.6c-2,1.5-4,2.7-6.4,3.1
	c-3.6,0.5-7.5,0.3-9.4-3c-2.3-3.8,1.4-6,3.8-8c9-6.9,13.7-16.2,16-27.1c1.1-5.1-0.1-9.6-5.2-11.2c-5.5-1.8-8.6,1.8-10.2,6.7
	c-2,6.2-3.6,12.6-5.8,18.8c-4.8,13.8-13.9,24.1-26.5,31.4c-2.7,1.5-5.6,2.8-8.7,2.6c-5.3-0.4-10.2-2.3-11.6-8
	c-1.4-5.6,2.9-8.3,7.2-10.3c6.4-2.9,12.5-6.3,17.5-11.3c8-8,11-17.8,9.8-28.8c-0.7-6.7-4.8-8.5-9.8-4c-5.1,4.5-9.3,9.9-13.9,14.8
	c-13.8,14.9-27.4,30.1-41.6,44.7c-13.9,14.2-34.7,15.6-49.6,4.4c-2.3-1.8-4.2-3.9-5.4-6.5c-3.8-7.9-0.1-14.3,8.6-13.3
	c26.2,3,45.7-8.5,61.9-27.5c7.5-8.9,14.6-18.1,19.5-28.7c1.5-3.4,4.1-8.5,0.4-10.8c-4-2.5-6.7,2.7-9.1,5.6
	c-11.5,14.2-25.2,25.6-42,32.8c-9.9,4.2-20.1,6-30.8,2.9c-8.3-2.4-12.3-8.1-11.6-16c0.6-6.1,4-9,9.8-7.3c23.1,6.9,42-1,59.1-16
	c6.6-5.8,12.4-12.4,17.9-19.2c0.7-0.8,1.4-1.8,1.8-2.7c2-4.6,5-10.2,0.9-14c-4.7-4.3-8.7,1-12.4,3.8c-15.2,11.7-30.8,22.4-50.1,26.3
	c-11.6,2.3-21-1.9-24.9-10.8c-4.5-10.2,0.7-17.5,11.8-16.6c13,1.1,25.8,1.5,37.8-4.9c12.3-6.6,22.6-15.8,32.8-25
	c0.9-0.8,1.7-2,2.2-3.2c0.8-2.3,1.8-4.9-0.5-6.7c-2-1.6-4.1-0.3-6,0.9c-8.9,5.7-18.3,10.3-28.4,13.4c-12.2,3.7-24.5,6.5-37.4,3.7
	c-6.7-1.5-11.5-5.2-13.5-12c-1.3-4.3-0.9-8.3,2.3-11.6c3.1-3.1,7-3.3,11-2.1c1.7,0.5,3.4,1.1,4.9,1.9c10.8,6.3,22.1,6.3,33.5,2.2
	c12.1-4.3,22.8-11.1,33.1-18.5c0.9-0.6,1.7-1.4,2.4-2.3c2.4-2.9,3.8-6.2,1.2-9.6c-2.7-3.6-6.1-2.5-9.4-0.7
	c-12.2,6.7-25.1,11.1-39.1,12.6c-18.7,2-33.7-6.2-39.6-22.1c-0.3-0.8-0.8-1.6-0.9-2.5c-0.6-4.3-1.9-9.2,2.4-12.1
	c4.5-3.1,9.1-0.7,12.5,2.5c20.3,18.6,45.4,15.2,65.7,1.3c1.1-0.7,2.2-1.4,3.2-2.4c2.8-2.8,6.2-6.1,4.5-10.1
	c-1.9-4.5-6.4-2.3-9.9-1.7c-16.1,3-32.2,4.4-48.2,0c-13.7-3.7-25-10.4-29.5-25.2c-1.7-5.7-1.9-11.1,3.4-14.8
	c5.2-3.6,9.8-0.5,13.4,3.2c16.5,16.6,37.4,18.6,59,18.2c6.3-0.1,11.5-5.2,10.9-10.1c-0.8-6.3-5.4-7.6-10.9-8
	c-25.4-1.9-47.4-12-65.6-29.5c-8.1-7.8-14.1-17.4-12.5-29.7c0.3-2.4,1.2-4.7,2.4-6.7c4.9-8.5,12.2-8.8,17.2-0.4
	c7.4,12.5,17,22.7,28.9,30.9c10.5,7.3,22.1,12.4,34.6,15.3c4,0.9,7.5,1.3,10-3.2c1.9-3.4,5.5-4.1,9.2-2.5
	c15.7,6.6,31.4,13.2,46.3,21.7c9.9,5.7,14.8,13.8,13.4,25.5c-0.8,6.3-0.9,12.6,2.1,18.6c4.5,8.9,13,14.1,21.7,12.6
	c8.9-1.5,15.5-8.7,16.7-18.7c1.4-11.1-1-21.2-7.5-30.5c-12.4-17.8-30.1-26.7-50.8-31c-7.7-1.6-15.4-3.3-23-5.4
	c-4.8-1.3-9.4-3.3-12.2-8.5c19.1,5,23.8,4.7,29.9-1.8c-5.4-1.7-10.5-0.1-15.6-0.2c-11.1-0.2-21.9-1.2-31.6-7.1
	c-4.2-2.5-7.9-5.7-7.7-11.3c0.1-4.8,2.8-6.3,6.9-3.7c1.6,1.1,3.2,2.4,4.3,4c8.9,12.3,22,12.9,35.4,12.7c1.3,0,2.9-0.1,3.5-1.3
	c0.6-1.4-0.9-2.3-1.7-3.2c-7.9-8.3-14.4-9.1-24.1-3c-0.7-9,3-13.8,11.7-14.7c2.6-0.3,5.3-0.2,7.9-0.1c3.7,0.3,6.2-0.6,9.5-3.4
	c8-6.8,18.1-7.3,28-4.8c14,3.5,27.2,9.7,41.6,11.6c3.8,0.5,7.9-0.1,11.8,2.2c-4.1,5.2-10.1,7.7-15.4,12.3
	c9.2,5.4,18.3,10.5,24.5,19.8c-4.8,2.2-10-0.1-15.3,2.4c8.2,3.1,16,5.1,22.5,10.1c1.5,1.2,2.8,2.6,4.3,3.9c-0.5,0.6-0.7,1-1.1,1.1
	c-8.4,2.6-8.3,2.5-2.2,8.9c4.2,4.4,8.6,8.8,12.3,13.6c3.4,4.3,5.5,3.3,8.5-0.3c4.3-5.2,9-10.2,13.8-14.9c3.9-3.7,4.3-5.8-1.8-6.7
	c-1-0.1-2-0.7-3.5-1.2c7-8.5,16.9-10.9,27-14.5c-5.2-2.6-10.4-0.4-15.4-2.4c6.4-9,14.9-14.6,24.8-19.6c-5-4.8-11.1-7.4-15.7-12.6
	c3.7-2.1,7.5-1.4,11-2.1c11.2-2.1,22.2-4.6,32.8-9c9.3-3.9,18.9-5.3,28.9-2.5c2.3,0.7,5.5,1,6.6,2.6c4.5,6.9,11.1,4.9,17.4,5.1
	c10.2,0.4,14.4,4.9,14,15.2c-3.9-2.3-7.1-5.9-12.1-4.5c-4.6,1.3-8.3,3.9-11.7,6.9c-1,0.8-2.4,1.7-2.1,3.1c0.3,1.5,2,1.6,3.2,1.6
	c13.4,0.2,26.5-0.2,35.5-12.5c0.3-0.4,0.6-0.7,0.9-0.9c2.7-2.2,5.4-7,9.1-3.4c3.5,3.3,1.5,7.9-1.6,11.1c-8.2,8.5-19.1,10-30.1,10.8
	c-7.1,0.5-14.3,0.1-21.4,0.9c9.1,7.7,18.8,4.6,28.7,1.1c-2.2,5-4.4,6.9-11.7,8.9c-10.8,2.8-21.7,5.2-32.5,7.9
	c-17,4.3-30.4,13.9-40.7,28.1c-6.2,8.6-8.7,17.9-7.9,28.4c0.9,12.1,8.7,20.8,19.3,21.1c10.6,0.4,20.6-9,21.6-20.6
	c0.4-4.6,0.1-9.2-0.2-13.8c-0.6-8.7,2.9-15.5,10-20.1c15.8-10.3,33.4-17.2,50.8-24.4c3.6-1.5,6.7-0.1,8.5,3c2.2,3.9,5.2,4,8.9,3.2
	c26.5-6.3,47.5-20.5,62.5-43.4c2.8-4.3,4.8-10.3,11.5-8.8c6.6,1.5,8.7,7.2,10,13.3c1.1,4.8-0.2,9.2-1.9,13.4
	c-3.4,8.5-8.8,15.7-16.1,21.2c-18.2,13.6-38,23.2-61.2,24.3c-5.2,0.2-9.1,2.1-10,7.5c-0.7,4.5,3.5,10,9.2,10.2
	c20.1,0.7,40-0.1,56.4-14.3c1.8-1.6,3.6-3.2,5.5-4.7c3.6-2.8,7.5-5.2,11.9-2.4c4.7,3,5.5,7.8,4.3,12.8c-2.3,9.9-8.1,17.3-17,22.2
	c-11.5,6.3-24,8-36.8,7.9c-8.3-0.1-16.6-1.3-24.8-2.8c-3.4-0.6-7.5-2.5-9.5,1.4c-2.1,4.2,1.2,7.7,4.1,10.1
	c9,7.3,19.2,12.2,30.7,13.8c13.6,1.9,25.5-1.8,36-10.6c4.4-3.6,9.4-8.5,15-4c5.4,4.4,2.9,10.8,0.5,16.4c-6.1,14.4-20.8,22-38.4,20.1
	c-13.7-1.4-26.5-5.6-38.5-12.2c-3.6-1.9-7.5-3.9-10.4,0.5c-2.9,4.4-0.5,8.3,3,10.8c12.5,9.2,25.6,17.6,41.1,21.1
	c8.8,2,16.9,0.6,24.8-3.4c0.6-0.3,1.2-0.6,1.7-0.9c8.2-3.9,14.4-3,17.3,2.6c3.2,6.2,0,15.3-7,19c-7.5,4-15.6,3.9-23.7,2.8
	c-16.8-2.1-32.2-7.8-46.5-16.8c-2.3-1.5-5.1-4.1-7.6-1.6c-2.8,2.8-1.2,6.6,1.2,8.8c13.7,12.5,27,25.8,46,30.3c8.4,2,17,1.2,25.5,0.4
	c10.5-0.9,15.6,5.8,11.9,15.7c-3.4,9.1-13,13.9-24.4,12c-10.1-1.7-19.2-5.8-28-10.8c-9-5.1-17.4-11-25.3-17.6
	c-2.9-2.4-6.3-5-9.9-2.3c-3.3,2.4-1.7,6.4-1.1,9.8c0.3,1.5,0.8,3.1,1.6,4.3c13.6,18.1,28.7,34.3,52.1,39.6
	c7.8,1.8,15.6,1.6,23.4-0.4c4.4-1.1,9-3.4,12.1,2.2c2.7,4.8,1.3,12.3-3.2,16.2c-4.9,4.2-11,5.3-17.2,5.3c-14.4,0.1-26.7-6.1-38.2-14
	c-9.6-6.6-18-14.6-25.2-23.8c-2.1-2.7-4.6-6.9-8.2-5.1c-3.7,1.9-1.9,6.5-0.4,9.4c15,27.7,32.4,52.9,67.1,57.9
	c4.8,0.7,9.6,0.2,14.4-0.1c9.1-0.6,12.9,5.4,8.9,13.6c-4.7,9.7-21.5,16-34.7,12.9c-8-1.9-15.1-5.6-20.9-11.6
	C943,802.5,926.5,784,910,765.6c-3-3.4-6.2-8.2-11.2-6c-4.6,2-3.5,7.5-3.3,11.8c0.5,11,5.4,19.7,14.1,26.3c4,3.1,8.5,5.4,13.1,7.5
	c4.5,2,8.8,4.7,7.5,10.8c-1,4.7-7.4,8.2-13.2,7.6c-3.6-0.4-6.7-2-9.6-4c-11.1-7.3-19.5-16.9-23.9-29.6c-2.2-6.4-3.8-13-6-19.4
	c-1.5-4.6-4.6-8-9.8-6.5c-5.3,1.5-6.7,5.9-5.7,11c2.2,10.3,6.2,19.6,14.8,26.3c1.5,1.2,3,2.6,4.2,4.1c2.5,3.1,1.9,5.7-1.9,7.2
	c-4.7,1.9-8.9,0.9-12.9-2.1c-10.6-7.8-16.9-18.7-22.1-30.4c-1.7-3.9-2.5-10.5-8.7-8.2c-5.7,2.1-4,8.3-2.6,12.7
	c8.5,28.5,26.7,47.1,56,54.2c3.4,0.8,6.9,1.4,10.1,2.7c4.1,1.6,5.5,4.6,1.8,8c-3.8,3.6-8,6.8-12,10.2c0.4,0.8,0.7,1.6,1.1,2.4
	c4.3,1.1,8.5,2.2,12.8,3.3c13.1,3.5,26.2,6.9,39.2,10.8c4.5,1.4,7.8,0.8,11.5-1.9c5.3-3.9,10.8-7.5,16.2-11.1
	c3.5-2.4,6.8-4.5,8.1-9.4c1.4-5.3,9.4-8.4,14.9-6c3.4,1.4,6.2,1.1,9.3,0c5.6-1.8,10.1-0.3,14.3,5.6c-8.3-1.3-13.3,1-16.8,7.9
	c-2.7,5.4-8.7,7.9-14.7,6.4c-4.5-1.1-7.4,0.1-10.6,2.7c-4.3,3.3-8.7,6.4-13.8,10.1c3.9,1.9,7.1,0.9,10.2,0.9
	c5.9-0.2,11.8-0.3,17.7-0.3c3.6,0,6.9,0,8.8-3.9c0.5-1,1.9-1.8,3.1-2.4c9.9-5.2,29.7,4.3,32.7,16.1c-6.2-4-11.3-4-17.3,0.9
	c-4.8,4-11.3,2.8-16.5-1.1c-1.6-1.2-3-2.6-5.2-2.3c-0.4,0-0.9,0.1-1.3,0.1c-9.4,0-18.8,0-28.4,1c7.8,4.1,13,12.8,24.2,9.9
	c8.9-2.3,17.2,4.3,18.3,13.3c0.3,2.3,1.3,4,2.3,5.9c2.6,4.5,2.3,9,0,14.1c-1.5-2.6-2.7-4.9-4.1-7.1c-2.6-3.8-5.5-6-10.8-5.4
	c-9.3,1.2-12.7-1.4-16.1-10.4c-0.6-1.6-1.7-2.5-3-3.2c-1.5-0.9-3-1.7-4.6-2.6c-22.3-12.7-22.3-12.6-45.8-2.4
	c-2.1,0.9-3.5,1.9-4.5,4.2c-2.7,6.2-8.6,8.9-14.6,7.6c-8.4-1.9-12.5,1.1-14.5,9.2c-2-2-2.3-4-2.5-6.1c-0.9-12,13.1-24.6,24.8-22
	c3.4,0.8,6-0.9,8.8-1.8c5.2-1.6,10.3-3.7,16.3-5.8c-9.9-4-19.6-5.6-29-8c-4.2-1.1-8.7-1.5-12.8-2.9c-12.2-4.1-22.5-3.1-31.3,7.8
	c-4.4,5.5-9.6,4.3-13.8-2.4c-5.6-8.9-10.4-18.2-15.6-27.3c-5-8.8-9.7-17.7-16.9-24.9c-5.5-5.4-11.5-11.5-20-7.4
	c-8.6,4.2-7.2,12.7-6.2,20.3c1.9,14.4,9.2,26.3,18.6,36.9c5.8,6.6,12.6,12.1,19.6,17.4c8.4,6.5,17.2,9.8,28.1,7.4
	c6.7-1.5,13.9,1.9,14.8,5.8c0.9,3.8-3.9,9.6-10.4,12.1c-12.2,4.8-23.5,4.4-33.1-6c-1.6-1.8-3.6-3.2-5.3-4.9
	c-2.5-2.4-5.2-3.5-8.2-1.2c-3.2,2.5-3.2,6.2-1.1,8.9c8.6,11.3,18.4,21.2,33.2,23.9c1.5,0.3,3.1,0.1,4.6,0.4c4,0.8,9.2,0.8,10.1,5.7
	c1,5.3-3.9,7.3-7.9,9c-9.3,4.1-18,2-26.4-2.7c-6.8-3.8-12.1-9.4-17.4-14.9c-1.6-1.7-3.6-3.9-6.2-2.4c-2.4,1.4-1.9,4.2-1.6,6.6
	c1.8,15.8,13.7,27.6,29.5,29.5c2.9,0.4,6.6-0.2,7.7,3.6c1.2,3.9-1.1,6.7-3.8,9.2c-7.4,6.8-17,6.9-25,0.2
	c-6.6-5.4-10.7-12.7-14.4-20.1c-1.1-2.1-1.9-4.5-3.3-6.4c-2.7-3.6-5.5-3.2-7.7,0.5c-2.5,4.2-2.6,8.8-1.7,13.4
	c2.1,9.9,6.7,18.7,13.9,25.6c5,4.7,4.6,8.7,1.6,13.8c-7.3,12.6-16.9,23.4-26.6,34.1c-6.5,7.3-6.6,7.3-13.1,0.1
	c-9.2-10.2-18.4-20.5-25.6-32.4c-5-8.2-4.7-9.5,1.5-16.4c6.2-7,10.9-14.8,12.7-24.1c0.5-2.5,0.9-5.3,0.6-7.8c-0.5-3.6-1-8.2-5.3-9
	c-4.4-0.8-5.3,3.7-6.8,6.7c-4,8.1-8.2,16-15.3,21.9c-8.8,7.3-20.1,6.4-26.9-2c-1.7-2.1-2.9-4.5-2.1-7.3c0.9-3.2,3.8-3.5,6.3-3.5
	c18.9-0.2,26.2-14,30.5-27.7c0.9-2.9,1.7-6.7-1.2-8.4c-3.3-2-5.6,1.4-7.6,3.6c-7.7,8.3-16,15.7-27.6,17.9c-7.5,1.4-14.5,0-20.3-5
	c-4.4-3.8-3.7-7.7,1.8-9.9c1.8-0.7,3.8-1.3,5.7-1.4c17.1-0.7,27.8-11.6,37.5-23.7c2.4-3,2.6-6.7-0.7-9.4c-3.2-2.6-6.1-1-8.7,1.5
	c-2.1,2-4.2,3.8-6.3,5.7c-10.1,8.9-23.5,10.3-35.1,3.1c-3.7-2.3-7.7-5.4-6.8-10.3c1-4.9,6-5.2,10-6c1.5-0.3,3.1-0.3,4.6,0
	c11,2.9,20-1.1,28.6-7.7c17.1-13,31.5-27.8,37-49.4c1.4-5.6,2-11.2,0.7-16.9c-1.8-7.8-8-11-15.5-8.2c-6.6,2.5-11.2,7.5-15.4,12.9
	c-9.3,12.3-15.6,26.3-23.2,39.6c-9.8,17-13.1,16.2-24.9,4.1c-4.8-4.9-9.3-5.5-15.7-4.1c-15.2,3.4-30.4,6.3-45.4,10.6
	C601.2,885.1,599.4,885.3,598,887z M675.4,498.4c-3.9,0.9-10.2-0.4-10.1,5.4c0.1,5,5.9,5,9.9,5.1c4.3,0.1,10.4,0.2,10.6-5.1
	C685.9,498.4,679.7,499.1,675.4,498.4z M860.1,509.1c4.2-0.8,10.4-0.1,10.4-5.5c0-5.5-6.2-5-10.4-5c-4.1-0.1-9.9,0.1-10.1,4.9
	C849.8,509,856,508.3,860.1,509.1z"/>
<path class="st2" d="M675.4,498.4c4.3,0.7,10.5,0,10.4,5.5c-0.1,5.2-6.3,5.1-10.6,5.1c-4-0.1-9.8-0.1-9.9-5.1
	C665.2,497.9,671.5,499.3,675.4,498.4z"/>
<path class="st2" d="M860.1,509.1c-4.1-0.9-10.3-0.1-10.1-5.7c0.1-4.8,6-4.9,10.1-4.9c4.2,0.1,10.4-0.5,10.4,5
	C870.5,509,864.3,508.4,860.1,509.1z"/>
</svg>
