<?xml version="1.0" encoding="utf-8"?>
<!-- Generator: Adobe Illustrator 22.0.0, SVG Export Plug-In . SVG Version: 6.00 Build 0)  -->
<svg version="1.1" id="Layer_1" xmlns="http://www.w3.org/2000/svg" xmlns:xlink="http://www.w3.org/1999/xlink" x="0px" y="0px"
	 viewBox="0 0 1535.8 1535.8" style="enable-background:new 0 0 1535.8 1535.8;" xml:space="preserve">
<style type="text/css">
	.st0{fill:#FFFFFF;}
</style>
<rect x="3.4" y="0" width="1535.8" height="1535.8"/>
<g>
	<path class="st0" d="M1036.2,580.4c1.8,49.8-18.5,91-51,127.3c-23.9,26.6-52.3,47.8-81.2,68.6c-15.4,11.1-30.7,22.4-45.6,34
		c-18,14-27.5,33.8-35.5,54.5c-6.5,16.9-11.9,34.9-28.4,45.2C758,932.7,700,924.8,685,872.8c-9.8-33.8-1.2-64.2,17.1-92.5
		c21.3-33,52.5-55.9,82.9-79.7c22.9-18,45.6-36.1,64.6-58.6c30.3-35.8,27.6-94.9-1.9-124.2C833.9,504,817.1,496.4,798,492
		c-22.7-5.1-44.9-4.3-67.2,0.8c-25.8,5.9-45.4,20.9-58.6,43.4c-11.7,19.8-21,41.1-32.5,61c-17,29.3-43.9,38.9-76.7,34.2
		c-21.2-3.1-38.1-12.6-48.7-31.3c-3.8-6.7-6.5-14.8-7.3-22.5c-3.5-33.4,5.5-63.9,22.9-92.5c26.1-42.9,63.9-71.9,108.7-92.7
		c45.3-21,93.1-30.8,142.8-26.9c29,2.3,58.1,6.7,86.3,13.8c44.5,11.3,84.9,31.8,116.9,65.9c19.4,20.6,33.9,44.2,42.3,71.6
		C1033.3,537.7,1036.2,558.7,1036.2,580.4z"/>
	<path class="st0" d="M843.2,1082.8c1.2,48.2-40.3,88.6-88.8,88.4c-49.3-0.2-89.6-42.1-88.5-91.5c1-46.8,42.5-87.4,90-86.7
		C801.1,993.6,845.1,1031.8,843.2,1082.8z"/>
</g>
</svg>
