<svg xmlns="http://www.w3.org/2000/svg" width="21.056" height="21.056" viewBox="0 0 21.056 21.056">
  <g id="Group_88" data-name="Group 88" transform="translate(-198.911 -306.012)">
    <path id="Icon_ionic-ios-arrow-up" data-name="Icon ionic-ios-arrow-up" d="M7.928,2.732l5.993,6a1.133,1.133,0,1,0,1.6-1.6L8.73.33A1.131,1.131,0,0,0,7.168.3L.33,7.12a1.133,1.133,0,0,0,1.6,1.6Z" transform="translate(217.441 321.022) rotate(180)" fill="#ff9100"/>
    <path id="Icon_ionic-ios-arrow-dropdown-circle" data-name="Icon ionic-ios-arrow-dropdown-circle" d="M3.375,13.9A10.528,10.528,0,1,0,13.9,3.375,10.526,10.526,0,0,0,3.375,13.9Zm14.633-2.2a.981.981,0,0,1,1.382,0,.965.965,0,0,1,.283.688.982.982,0,0,1-.289.693l-4.773,4.758a.976.976,0,0,1-1.346-.03L8.421,12.987A.977.977,0,0,1,9.8,11.605l4.1,4.145Z" transform="translate(195.536 302.637)"/>
  </g>
</svg>
