<svg xmlns="http://www.w3.org/2000/svg" width="68.153" height="45.435" viewBox="0 0 68.153 45.435">
  <path id="Icon_metro-visa" data-name="Icon metro-visa" d="M60.992,35.787H56.91q.414-1.094,1.952-5.295l.089-.266q.118-.3.3-.769t.266-.769l.355,1.627ZM18.278,33.865l-1.716-8.726a1.961,1.961,0,0,0-2.219-1.6H6.416l-.059.385q9.2,2.337,11.921,9.939Zm5.295-10.323L18.781,36.5l-.5-2.633a10.755,10.755,0,0,0-2.514-3.831,11.472,11.472,0,0,0-3.875-2.618L15.882,42.5h5.177l7.72-18.961H23.573Zm4.112,18.991h4.91l3.076-18.991h-4.91ZM50.4,24.014a11.988,11.988,0,0,0-4.407-.8,9.588,9.588,0,0,0-5.946,1.745,5.5,5.5,0,0,0-2.337,4.526Q37.682,32.5,42,34.634a8.181,8.181,0,0,1,1.982,1.213A1.575,1.575,0,0,1,44.545,37a1.48,1.48,0,0,1-.887,1.361,4.271,4.271,0,0,1-2.041.473A10.688,10.688,0,0,1,37,37.858l-.651-.325-.68,4.26A13.106,13.106,0,0,0,41.143,42.8a9.767,9.767,0,0,0,6.168-1.745,5.816,5.816,0,0,0,2.381-4.733q0-3.135-4.141-5.147a14.3,14.3,0,0,1-2.1-1.242,1.424,1.424,0,0,1-.651-1.124,1.381,1.381,0,0,1,.725-1.139,3.726,3.726,0,0,1,2.085-.488,8.35,8.35,0,0,1,3.668.71l.444.237Zm12.572-.473H59.187a2.513,2.513,0,0,0-2.573,1.6L49.337,42.532h5.147l1.035-2.84H61.79q.148.651.592,2.84h4.555Zm7.75-9.466V51.938a3.839,3.839,0,0,1-3.786,3.786H6.357A3.639,3.639,0,0,1,3.695,54.6a3.638,3.638,0,0,1-1.124-2.662V14.075a3.639,3.639,0,0,1,1.124-2.662,3.638,3.638,0,0,1,2.662-1.124h60.58a3.839,3.839,0,0,1,3.786,3.786Z" transform="translate(-2.571 -10.289)" fill="#fff"/>
</svg>
