<svg xmlns="http://www.w3.org/2000/svg" width="17.261" height="23.015" viewBox="0 0 17.261 23.015">
  <path id="Icon_awesome-file-csv" data-name="Icon awesome-file-csv" d="M10.069,6.113V0H1.079A1.076,1.076,0,0,0,0,1.079V21.936a1.076,1.076,0,0,0,1.079,1.079h15.1a1.076,1.076,0,0,0,1.079-1.079V7.192H11.148A1.082,1.082,0,0,1,10.069,6.113ZM5.754,12.586a.36.36,0,0,1-.36.36h-.36a.719.719,0,0,0-.719.719V15.1a.719.719,0,0,0,.719.719h.36a.36.36,0,0,1,.36.36V16.9a.36.36,0,0,1-.36.36h-.36A2.158,2.158,0,0,1,2.877,15.1V13.665a2.158,2.158,0,0,1,2.158-2.158h.36a.36.36,0,0,1,.36.36Zm1.99,4.675H7.192a.36.36,0,0,1-.36-.36v-.719a.36.36,0,0,1,.36-.36h.552c.267,0,.468-.157.468-.3a.238.238,0,0,0-.1-.173l-.984-.844a1.668,1.668,0,0,1-.6-1.265,1.829,1.829,0,0,1,1.906-1.736H8.99a.36.36,0,0,1,.36.36v.719a.36.36,0,0,1-.36.36H8.438c-.267,0-.468.157-.468.3a.238.238,0,0,0,.1.173l.984.844a1.668,1.668,0,0,1,.6,1.265,1.828,1.828,0,0,1-1.905,1.736Zm3.764-5.394V12.8a4.9,4.9,0,0,0,.719,2.557,4.9,4.9,0,0,0,.719-2.557v-.935a.36.36,0,0,1,.36-.36h.719a.36.36,0,0,1,.36.36V12.8a6.183,6.183,0,0,1-1.631,4.229.719.719,0,0,1-1.054,0A6.183,6.183,0,0,1,10.069,12.8v-.935a.36.36,0,0,1,.36-.36h.719A.36.36,0,0,1,11.507,11.867ZM16.946,4.72,12.546.315A1.078,1.078,0,0,0,11.781,0h-.274V5.754h5.754V5.479A1.075,1.075,0,0,0,16.946,4.72Z" fill="#fca120"/>
</svg>
