<svg xmlns="http://www.w3.org/2000/svg" width="18.986" height="21.698" viewBox="0 0 18.986 21.698">
  <path id="Icon_awesome-copy" data-name="Icon awesome-copy" d="M13.561,18.986v1.7A1.017,1.017,0,0,1,12.544,21.7H1.017A1.017,1.017,0,0,1,0,20.681V5.085A1.017,1.017,0,0,1,1.017,4.068H4.068V16.612a2.376,2.376,0,0,0,2.373,2.373Zm0-14.578V0H6.442A1.017,1.017,0,0,0,5.424,1.017v15.6A1.017,1.017,0,0,0,6.442,17.63H17.969a1.017,1.017,0,0,0,1.017-1.017V5.424H14.578A1.02,1.02,0,0,1,13.561,4.407Zm5.127-1.315L15.893.3a1.017,1.017,0,0,0-.719-.3h-.257V4.068h4.068V3.812a1.017,1.017,0,0,0-.3-.719Z" fill="#fff"/>
</svg>
