<svg xmlns="http://www.w3.org/2000/svg" width="17.261" height="23.015" viewBox="0 0 17.261 23.015">
  <path id="Icon_awesome-file-pdf" data-name="Icon awesome-file-pdf" d="M8.176,11.512A4.337,4.337,0,0,1,8.087,9.4C8.464,9.4,8.428,11.062,8.176,11.512ZM8.1,13.633a20.741,20.741,0,0,1-1.277,2.818,16.552,16.552,0,0,1,2.827-.984A5.823,5.823,0,0,1,8.1,13.633Zm-4.23,5.61c0,.036.593-.243,1.569-1.807A6.213,6.213,0,0,0,3.87,19.243ZM11.148,7.192h6.113V21.936a1.076,1.076,0,0,1-1.079,1.079H1.079A1.076,1.076,0,0,1,0,21.936V1.079A1.076,1.076,0,0,1,1.079,0h8.99V6.113A1.082,1.082,0,0,0,11.148,7.192Zm-.36,7.722A4.512,4.512,0,0,1,8.869,12.5,6.461,6.461,0,0,0,9.147,9.61,1.126,1.126,0,0,0,7,9.3a7.474,7.474,0,0,0,.364,3.461,42.209,42.209,0,0,1-1.834,3.857s0,0-.009,0c-1.218.625-3.308,2-2.45,3.057a1.4,1.4,0,0,0,.966.45c.8,0,1.6-.809,2.746-2.778a25.622,25.622,0,0,1,3.551-1.043,6.812,6.812,0,0,0,2.877.877,1.164,1.164,0,0,0,.886-1.951c-.625-.611-2.441-.436-3.308-.324ZM16.946,4.72,12.541.315A1.078,1.078,0,0,0,11.777,0h-.27V5.754h5.754V5.479A1.075,1.075,0,0,0,16.946,4.72ZM13.615,16.2c.184-.121-.112-.535-1.924-.4C13.359,16.5,13.615,16.2,13.615,16.2Z" fill="#fca120"/>
</svg>
