<svg xmlns="http://www.w3.org/2000/svg" width="15.544" height="13.601" viewBox="0 0 15.544 13.601">
  <path id="Icon_awesome-camera" data-name="Icon awesome-camera" d="M15.544,5.65v8.743a1.458,1.458,0,0,1-1.457,1.457H1.457A1.458,1.458,0,0,1,0,14.394V5.65A1.458,1.458,0,0,1,1.457,4.193H4.129l.373-1A1.455,1.455,0,0,1,5.865,2.25h3.81a1.455,1.455,0,0,1,1.363.944l.376,1h2.672A1.458,1.458,0,0,1,15.544,5.65Zm-4.129,4.372a3.643,3.643,0,1,0-3.643,3.643A3.646,3.646,0,0,0,11.415,10.022Zm-.971,0A2.672,2.672,0,1,1,7.772,7.35,2.676,2.676,0,0,1,10.443,10.022Z" transform="translate(0 -2.25)" fill="#fca120"/>
</svg>
