<svg id="Icon_ionic-md-wallet" data-name="Icon ionic-md-wallet" xmlns="http://www.w3.org/2000/svg" width="22.13" height="20.428" viewBox="0 0 22.13 20.428">
  <path id="Path_7106" data-name="Path 7106" d="M11.6,19.252V10.176A2.27,2.27,0,0,1,13.876,7.9h10.48V6.772A2.263,2.263,0,0,0,22.106,4.5H5.716A2.3,2.3,0,0,0,3.375,6.734v15.96a2.3,2.3,0,0,0,2.341,2.234H22.1a2.259,2.259,0,0,0,2.25-2.272V21.523H13.871A2.269,2.269,0,0,1,11.6,19.252Z" transform="translate(-3.375 -4.5)" fill="#00cbff"/>
  <path id="Path_7107" data-name="Path 7107" d="M17.227,12.8v7.448a.854.854,0,0,0,.851.851h9.948a.854.854,0,0,0,.851-.851V12.8a.854.854,0,0,0-.851-.851H18.078A.854.854,0,0,0,17.227,12.8Zm4.1,5.421a1.7,1.7,0,1,1,1.591-1.591A1.7,1.7,0,0,1,21.328,18.225Z" transform="translate(-6.747 -6.314)" fill="#00cbff"/>
</svg>
