<?xml version="1.0" encoding="utf-8"?>
<!-- Generator: Adobe Illustrator 24.1.1, SVG Export Plug-In . SVG Version: 6.00 Build 0)  -->
<svg version="1.1" id="Layer_1" xmlns="http://www.w3.org/2000/svg" xmlns:xlink="http://www.w3.org/1999/xlink" x="0px" y="0px"
	 viewBox="0 0 1535.8 1535.8" style="enable-background:new 0 0 1535.8 1535.8;" xml:space="preserve">
<style type="text/css">
	.st0{fill:#244AA4;}
	.st1{fill:#CFA550;}
	.st2{fill:#F7F8FB;}
	.st3{fill:#F9FAFC;}
	.st4{fill:#FAFBFC;}
</style>
<rect x="0" class="st0" width="1535.8" height="1535.8"/>
<g>
	<g>
		<path class="st0" d="M767.9,1302.1c-253,0-506.1,0-759.1,0.2c-7.2,0-8.8-1.6-8.8-8.8C0.2,934,0.2,574.5,0,215
			c0-7.2,1.6-8.8,8.8-8.8c506.1,0.2,1012.1,0.2,1518.2,0c7.2,0,8.8,1.6,8.8,8.8c-0.2,359.5-0.2,719,0,1078.5c0,7.2-1.6,8.8-8.8,8.8
			C1274,1302.1,1020.9,1302.1,767.9,1302.1z M772.7,585.8c3.2-7.3,15.3-3.1,13.7-13.3c-1-6.8-5-12.3-9.1-17.7
			c-0.4-0.5-0.7-1.1-1-1.6c-9.2-12.5-16.5-13.7-29-4.6c-4.5,3.2-9.5,5.4-14.7,6.8c-12,3.3-21.5,12.7-34.5,13.5
			c-2.6,0.2-2.8,3.1-3.9,4.9c-6.3,10.1,1.4,17.9,4.1,26.5c1.4,4.5,2.7,7.4,8.4,6.4c5.1-0.9,7,3.6,8.8,7.3c1.6,3.2,0.2,5.9-2.9,6.9
			c-7.9,2.7-8.5,9-7.6,15.6c1.1,8.3-3.7,13.6-9.4,17.5c-6.3,4.4-3.2-4.8-6.9-5.8c-7.1-2-10.5,0.9-11.7,7.2
			c-1.7,8.8-5.8,13.3-15.4,15.1c-13.8,2.6-17.2,19.1-6.9,29.1c8.2,7.9,6.6,15.5-4.3,17.7c-8.5,1.7-16.4,8.1-25.9,3.9
			c-1.5-0.6-3.7,0.5-5.6,0.9c-11.8,2.9-22.7,10.1-36,6.7c-3.1-0.8-6.8,2-9.2,4.5c-5.1,5.6-11.2,10.8-12.9,18.7
			c-0.7,3.3-2.1,4.3-5.6,5c-9.6,1.9-18.5,0-26.5-4.6c-9.3-5.4-18.2-7.5-27.8-1.5c-7.7,4.8-19.7,5.4-18.1,19.1c0.1,1-0.9,2.4-1.8,3.3
			c-5.7,5.9-3.5,9.9,2.7,13.6c7.9,4.7,15.1,10.2,25.1,11c3.9,0.3,13.5,2.5,8.6,9.6c-5.8,8.3-6.2,15.5-2.7,23.9
			c1.1,2.6,0.6,5.4-0.8,7.3c-6,7.8-1.2,12.4,4.8,16.2c5.6,3.6,11.8,6.4,17.6,9.8c4.5,2.6,10.1,5.7,10.3,10.7
			c0.7,12.7,16.7,20.9,10,35.4c-0.2,0.4,0.2,1.5,0.6,1.7c12.3,6.2,8.8,17.7,9.7,27.9c0.3,3.1,0.5,6.5,5.2,6.7
			c6,0.3,12.2,2.3,18.1,1.4c12-1.7,20.1,4.6,28.4,11.3c3,2.4,5.6,5.6,9.6,6.1c18.5,2,23.5,18.6,31.3,30.7c5,7.8,6.4,18.5,10.5,27.5
			c2,4.4,3.4,9.1,0.9,13.8c-4.1,7.5-1.6,13.9,3.9,19c6.3,5.8,8.9,13,10.7,20.9c1,4.3,1.8,9,3.9,12.7c4.9,8.7,2.3,15.1-5.6,19.2
			c-8.4,4.5-9.6,10.1-5.4,18c0.9,1.6,1,3.7,1.3,5.5c2.4,14.3,12,18.3,23.3,9.4c1.8-1.4,2.9-2.3,4.7-0.6c6.8,6.4,12.9,2.5,19.1-1.2
			c9-5.3,17.1-12.6,19.3-22.3c2.1-9.1,6.1-20.2-4.4-28.5c-1.7-1.3-1.6-5.4-1.8-8.3c-1-20.2,15.9-37.9,35.8-36.1
			c8.7,0.8,13-3.5,17.9-8.6c3.7-3.9,6.6-8.8,12.8-9.3c16.3-1.5,30-9.3,41.5-20.1c6.6-6.2,11.9-8.2,19-1.7c9.1,8.3,20.4,15,20.9,29.5
			c0.1,3.6,0.9,7.4,4.9,8.6c10.5,3.1,21.1,5.6,31.9,1.4c7-2.7,8.9-8.2,3.7-13.4c-6.5-6.6-3.1-11.2-0.1-17.7
			c4.8-10.2,15.1-16.2,18.7-27.2c1.8-5.4,6.9-5.2,12-1.9c4.6,3,9.7,3.8,8.7-4.7c-0.7-5.7,2.1-10,6.8-11.1c5.2-1.2,11,0.1,14,5.8
			c0.8,1.6,0.7,4.4,3.2,4.1c9.9-1.5,19.7,2.4,29.6,0.3c2.1-0.5,7-1.9,4.8-3.9c-8-7.5-10.9-19.8-21-24.3c-8.1-3.7-7.5-10.1-9-16.1
			c-0.8-3.3,2.5-6.5,5.1-5.2c9,4.8,15.7-5.9,24.1-2.8c0.7,0.3,1.9-0.3,2.6-0.9c3.7-2.9,8.9-22.1,6.7-26.6c-2.2-4.5-1.5-6.7,2.9-9
			c5.9-3.2,10.4-7.5,11.9-15c1.9-8.9,5.5-17.3,13.4-23.3c3.2-2.4,7.7-5.9,7-9.8c-2-11.6,5.2-19.3,9.9-28.1c4.8-9-0.7-24.9-9.8-29.6
			c-2.8-1.5-5.3-1.2-8.1,0.2c-7.2,3.6-16.1,0.9-22.8,6.3c-1.5,1.2-2.2-0.4-2.7-1.4c-2.4-4.7-6.8-5.4-11.3-5.9
			c-4-0.5-5.9-2.6-4.8-6.5c2.8-10.2-3.6-11.7-10.5-9.8c-11.5,3.2-21.8,1.3-32.1-3.8c-1.7-0.8-3.8-1.4-5.6-1.1
			c-10.8,1.3-15.7-2.4-12.2-13.7c0.3-1.1,0.2-2.8-0.4-3.7c-4-6.3-0.9-11.4,2.4-16.7c3.2-5,8.2-10.8,4.4-16.6
			c-3.6-5.4-10.6-2.1-16.1-2.2c-3.9-0.1-9.6,1.9-10.7-3.4c-1.9-9.1-8.3-9.2-15.2-9.7c-4.2-0.3-8.5,1.1-12.6-2.6
			c-8.4-7.6-11.5-16.4-8.7-27.4c2.3-9.2-3.3-15.5-9.2-20.8c-5.3-4.8-9.3,2.3-13.9,4.6c-5.3-9.3-6.7-19.1-8.2-28.9
			c-0.6-3.8-0.4-9.1-4.5-9.8c-6.7-1.1-9.7-5.3-13-10.1c-2.2-3.2-6.5-5.5-8.5-1.3c-3.9,8.3-7.6,8.4-13.1,2c-1.5-1.8-3.6-0.7-5.4-0.2
			c-10.4,2.4-19.5-0.5-27.9-6.7C791.3,590.9,783.3,585.7,772.7,585.8z M877.9,477.5c-4.6-13.7-8.1-25.6-12.6-37.1
			c-2.3-5.9-1.4-9.1,3.9-12.5c10.5-6.7,20.5-14.2,30.7-21.3c-13-1.8-25.1-2.3-37.1-1.6c-7.4,0.4-10.7-2-12.7-9.2
			c-3.1-11.3-7.4-22.3-11.9-35.6c-4.8,14.1-9.1,25.5-12.4,37.1c-1.7,6.3-4.9,7.8-10.9,7.6c-12.5-0.4-25.1-0.1-37.7-0.1
			c9.5,9,19.1,16.3,29.4,22.6c6.2,3.8,6.5,7.6,4.3,14c-3.8,11.1-8.7,21.9-11.1,35.3c10.9-7.7,20.8-13.7,29.6-21
			c6.8-5.7,11.5-4.9,18,0.2C856.6,463.2,866.6,469.5,877.9,477.5z M743,406.7c-0.2-0.6-0.4-1.3-0.6-1.9c-11.7,0-23.4-0.6-35,0.2
			c-8.7,0.6-12.2-2.6-14.6-10.7c-3.1-10.6-5.9-21.6-11.9-33.1c-4.2,12.7-8.3,23.5-11.3,34.5c-2,7.1-5.4,9.6-12.8,9.2
			c-12.1-0.7-24.3-0.2-36.5-0.2c9.6,9,19.3,16.3,29.5,22.7c6.1,3.8,6.9,7.5,4.4,13.9c-4.3,10.9-7.7,22.1-11.4,33.1
			c12.1-6.2,22.8-13.4,33.2-21.1c4-3,6.8-3.1,10.8-0.1c10.5,7.8,21.3,15,34.2,24c-4.8-14.2-8.4-26-12.8-37.5
			c-2.1-5.5-1.2-8.5,3.8-11.7C722.5,421.4,732.7,413.9,743,406.7z M1091.7,548.1c2-0.7,2.7-0.7,3.2-1.1c7.4-5.1,14.7-10.2,22-15.4
			c13.8-9.7,13.8-9.7,27.3-0.3c7.9,5.6,15.8,11.1,26.1,18.3c-4.6-13.7-7.8-24.7-12.1-35.2c-2.9-7.1-2.2-11.2,4.8-15.4
			c10.2-6.1,19.7-13.5,31.9-22.1c-15.3,0-27.6-0.4-39.9,0.1c-6.7,0.3-10.3-1.5-12.2-8.5c-3.1-11.4-7.4-22.5-12.1-36.4
			c-4.8,14.2-8.9,25.5-12.3,37.1c-1.7,5.9-4.5,8-10.8,7.8c-12.8-0.5-25.6-0.1-41.2-0.1c13.3,9.3,23.9,17,34.8,24.2
			c3.9,2.6,4.8,4.8,3.1,9.4C1099.9,522.5,1096.2,534.7,1091.7,548.1z M466.9,478.8c-0.3-0.6-0.6-1.1-0.9-1.7
			c-13.1,0-26.2-0.2-39.3,0.1c-5,0.1-7.3-1.5-8.7-6.4c-3.6-12-8-23.7-13-38.2c-4.8,14.1-9,25.4-12.3,36.9c-1.7,6-4.5,8-10.7,7.8
			c-12.8-0.5-25.6-0.1-38.4-0.1c10.3,9.1,20.6,16.7,31.3,23.6c4.6,3,5.6,5.6,3.6,10.8c-4.4,11.7-8.1,23.8-12.9,38.1
			c11.6-8.1,21.4-14.2,30.3-21.4c6.5-5.3,11.3-5.9,18.1-0.3c8.9,7.4,18.9,13.5,30.7,21.7c-4.9-14.6-8.6-26.7-13.1-38.6
			c-1.9-4.9-0.9-7.3,3.3-10.1C445.7,493.8,456.2,486.2,466.9,478.8z M478.3,434.4c-0.2,0.6-0.4,1.3-0.6,1.9
			c9.9,6.9,19.5,14.3,29.8,20.6c6.4,3.8,6.5,7.7,4.2,13.9c-4.1,10.9-7.5,22.1-11.2,33.2c11.8-6,22.2-12.9,32-20.4
			c4.9-3.8,8.4-3.5,13.2,0.2c10,7.7,20.6,14.6,32.8,23.1c-4.6-13.8-8.1-25.7-12.7-37.2c-2.5-6.2-0.7-9.1,4.3-12.4
			c10.2-6.7,20.1-13.9,30.1-21c-13.3-1.8-26-2.1-38.6-1.7c-5.8,0.2-8.5-1.7-10.2-7.3c-3.6-12.1-7.9-24-12.5-37.8
			c-4.7,14-9.2,25.7-12.5,37.6c-1.7,6.4-4.9,7.6-10.8,7.5C503.2,434.2,490.8,434.4,478.3,434.4z M983.8,392.3
			c-0.7,0.1-1.3,0.2-2,0.3c-3.5,10.2-7.8,20.3-10.1,30.8c-2.2,9.5-7.1,11.8-16,11.2c-11.2-0.8-22.5-0.2-33.7-0.2
			c10,9.1,20,16.5,30.5,23.2c5,3.2,5.8,6.2,3.7,11.7c-4.4,11.5-8,23.3-12.8,37.4c10.6-7.4,19.7-12.7,27.5-19.5
			c8.8-7.7,15.7-7.5,24.4,0.2c7.6,6.7,16.6,11.8,27.1,19.1c-4.9-14.5-8.5-26.4-12.9-37.9c-2-5.2-1-7.9,3.6-10.9
			c10.5-6.9,20.7-14.3,31.1-21.5c-13.5-1.9-26.5-2.1-39.4-1.9c-4.9,0.1-7.3-1.3-8.8-6.3C992.3,416.1,987.9,404.3,983.8,392.3z"/>
		<path class="st1" d="M772.7,585.8c10.6-0.2,18.7,5,26.4,10.7c8.4,6.2,17.5,9.1,27.9,6.7c1.8-0.4,3.9-1.5,5.4,0.2
			c5.5,6.5,9.2,6.4,13.1-2c2-4.3,6.3-1.9,8.5,1.3c3.3,4.8,6.3,9,13,10.1c4,0.6,3.9,6,4.5,9.8c1.5,9.7,2.9,19.5,8.2,28.9
			c4.7-2.3,8.6-9.4,13.9-4.6c5.8,5.2,11.5,11.5,9.2,20.8c-2.8,11,0.3,19.8,8.7,27.4c4.1,3.7,8.4,2.2,12.6,2.6
			c6.9,0.5,13.3,0.5,15.2,9.7c1.1,5.3,6.7,3.3,10.7,3.4c5.5,0.1,12.5-3.2,16.1,2.2c3.8,5.8-1.2,11.5-4.4,16.6
			c-3.4,5.3-6.4,10.4-2.4,16.7c0.6,1,0.8,2.6,0.4,3.7c-3.5,11.4,1.4,15,12.2,13.7c1.8-0.2,3.9,0.3,5.6,1.1c10.3,5.1,20.6,7,32.1,3.8
			c6.9-1.9,13.3-0.4,10.5,9.8c-1.1,3.9,0.8,6,4.8,6.5c4.5,0.5,9,1.2,11.3,5.9c0.5,1,1.2,2.6,2.7,1.4c6.7-5.4,15.7-2.7,22.8-6.3
			c2.8-1.4,5.3-1.7,8.1-0.2c9.1,4.6,14.6,20.6,9.8,29.6c-4.8,8.9-11.9,16.6-9.9,28.1c0.7,3.9-3.8,7.4-7,9.8
			c-7.8,6-11.5,14.4-13.4,23.3c-1.6,7.5-6,11.8-11.9,15c-4.4,2.4-5.2,4.6-2.9,9c2.2,4.5-3,23.7-6.7,26.6c-0.7,0.6-1.9,1.2-2.6,0.9
			c-8.5-3.1-15.2,7.6-24.1,2.8c-2.5-1.4-5.9,1.9-5.1,5.2c1.5,6,0.8,12.5,9,16.1c10.1,4.5,13,16.9,21,24.3c2.2,2.1-2.6,3.5-4.8,3.9
			c-9.8,2.1-19.7-1.8-29.6-0.3c-2.4,0.4-2.3-2.4-3.2-4.1c-3-5.7-8.8-7-14-5.8c-4.7,1.1-7.5,5.4-6.8,11.1c1,8.5-4.1,7.6-8.7,4.7
			c-5.1-3.3-10.2-3.5-12,1.9c-3.7,11-14,17-18.7,27.2c-3,6.5-6.5,11.1,0.1,17.7c5.2,5.2,3.2,10.7-3.7,13.4
			c-10.8,4.2-21.4,1.7-31.9-1.4c-4-1.2-4.8-4.9-4.9-8.6c-0.4-14.5-11.7-21.2-20.9-29.5c-7.1-6.5-12.4-4.5-19,1.7
			c-11.6,10.9-25.2,18.6-41.5,20.1c-6.2,0.6-9.1,5.5-12.8,9.3c-4.9,5.1-9.2,9.4-17.9,8.6c-20-1.8-36.8,15.8-35.8,36.1
			c0.1,2.8,0.1,6.9,1.8,8.3c10.5,8.2,6.6,19.3,4.4,28.5c-2.3,9.8-10.3,17-19.3,22.3c-6.2,3.7-12.3,7.5-19.1,1.2
			c-1.8-1.7-2.9-0.8-4.7,0.6c-11.2,8.8-20.8,4.9-23.3-9.4c-0.3-1.9-0.5-3.9-1.3-5.5c-4.1-7.9-3-13.5,5.4-18
			c7.8-4.2,10.5-10.6,5.6-19.2c-2.1-3.8-3-8.4-3.9-12.7c-1.8-7.9-4.5-15.1-10.7-20.9c-5.5-5.1-8.1-11.5-3.9-19
			c2.6-4.7,1.2-9.4-0.9-13.8c-4.1-9-5.5-19.7-10.5-27.5c-7.8-12.2-12.8-28.7-31.3-30.7c-4-0.4-6.6-3.6-9.6-6.1
			c-8.2-6.7-16.4-13.1-28.4-11.3c-5.8,0.8-12-1.1-18.1-1.4c-4.6-0.3-4.9-3.7-5.2-6.7c-0.9-10.1,2.7-21.7-9.7-27.9
			c-0.4-0.2-0.8-1.3-0.6-1.7c6.7-14.5-9.3-22.7-10-35.4c-0.3-5-5.9-8.1-10.3-10.7c-5.8-3.4-11.9-6.2-17.6-9.8
			c-6-3.8-10.8-8.4-4.8-16.2c1.5-1.9,1.9-4.7,0.8-7.3c-3.5-8.5-3.1-15.7,2.7-23.9c4.9-7-4.6-9.3-8.6-9.6c-10-0.8-17.2-6.3-25.1-11
			c-6.2-3.6-8.4-7.7-2.7-13.6c0.8-0.9,1.9-2.3,1.8-3.3c-1.6-13.7,10.5-14.4,18.1-19.1c9.6-6,18.5-3.9,27.8,1.5
			c8,4.6,16.9,6.5,26.5,4.6c3.4-0.7,4.8-1.7,5.6-5c1.8-7.9,7.8-13.1,12.9-18.7c2.4-2.6,6.1-5.3,9.2-4.5c13.2,3.4,24.1-3.8,36-6.7
			c1.9-0.4,4.1-1.5,5.6-0.9c9.5,4.1,17.4-2.2,25.9-3.9c11-2.2,12.5-9.8,4.3-17.7c-10.3-10-6.9-26.5,6.9-29.1
			c9.6-1.8,13.7-6.4,15.4-15.1c1.2-6.3,4.7-9.2,11.7-7.2c3.7,1,0.6,10.2,6.9,5.8c5.7-4,10.5-9.2,9.4-17.5
			c-0.9-6.6-0.3-12.9,7.6-15.6c3.2-1.1,4.5-3.8,2.9-6.9c-1.8-3.7-3.7-8.2-8.8-7.3c-5.7,1-7-1.9-8.4-6.4c-2.6-8.7-10.3-16.4-4.1-26.5
			c1.2-1.9,1.4-4.8,3.9-4.9c13-0.8,22.5-10.2,34.5-13.5c5.2-1.4,10.3-3.5,14.7-6.8c12.5-9.1,19.9-8,29,4.6c0.4,0.5,0.6,1.1,1,1.6
			c4.1,5.4,8.1,10.9,9.1,17.7C788,582.7,775.8,578.5,772.7,585.8z"/>
		<path class="st2" d="M877.9,477.5c-11.4-8-21.3-14.3-30.5-21.6c-6.5-5.2-11.2-5.9-18-0.2c-8.7,7.3-18.6,13.3-29.6,21
			c2.4-13.4,7.2-24.2,11.1-35.3c2.2-6.3,1.9-10.1-4.3-14c-10.3-6.3-19.9-13.6-29.4-22.6c12.6,0,25.1-0.3,37.7,0.1
			c6,0.2,9.1-1.4,10.9-7.6c3.2-11.7,7.6-23,12.4-37.1c4.5,13.3,8.9,24.3,11.9,35.6c2,7.2,5.3,9.6,12.7,9.2c12-0.6,24.2-0.2,37.1,1.6
			c-10.2,7.2-20.2,14.6-30.7,21.3c-5.3,3.4-6.3,6.6-3.9,12.5C869.8,451.9,873.4,463.8,877.9,477.5z"/>
		<path class="st2" d="M743,406.7c-10.3,7.2-20.4,14.7-31,21.5c-5,3.2-5.9,6.2-3.8,11.7c4.4,11.5,8,23.3,12.8,37.5
			c-12.9-9-23.8-16.3-34.2-24c-4-3-6.8-2.9-10.8,0.1c-10.4,7.7-21.1,14.9-33.2,21.1c3.8-11.1,7.1-22.3,11.4-33.1
			c2.5-6.4,1.8-10.1-4.4-13.9c-10.2-6.3-19.9-13.6-29.5-22.7c12.2,0,24.3-0.5,36.5,0.2c7.4,0.4,10.8-2.2,12.8-9.2
			c3-11,7.1-21.8,11.3-34.5c5.9,11.5,8.7,22.4,11.9,33.1c2.4,8.1,5.9,11.3,14.6,10.7c11.6-0.8,23.3-0.2,35-0.2
			C742.6,405.4,742.8,406,743,406.7z"/>
		<path class="st3" d="M1091.7,548.1c4.5-13.4,8.2-25.6,12.7-37.4c1.7-4.6,0.8-6.8-3.1-9.4c-10.9-7.2-21.5-14.9-34.8-24.2
			c15.5,0,28.4-0.3,41.2,0.1c6.2,0.2,9-1.8,10.8-7.8c3.3-11.5,7.5-22.9,12.3-37.1c4.7,13.9,9,25,12.1,36.4c1.9,7,5.5,8.8,12.2,8.5
			c12.3-0.5,24.7-0.1,39.9-0.1c-12.2,8.5-21.6,15.9-31.9,22.1c-7,4.2-7.7,8.3-4.8,15.4c4.3,10.5,7.5,21.5,12.1,35.2
			c-10.3-7.2-18.2-12.8-26.1-18.3c-13.5-9.5-13.5-9.5-27.3,0.3c-7.3,5.2-14.7,10.3-22,15.4C1094.4,547.4,1093.7,547.4,1091.7,548.1z
			"/>
		<path class="st3" d="M466.9,478.8c-10.6,7.4-21.1,15.1-31.9,22.2c-4.2,2.8-5.2,5.2-3.3,10.1c4.5,11.8,8.2,23.9,13.1,38.6
			c-11.7-8.2-21.7-14.3-30.7-21.7c-6.8-5.6-11.6-5-18.1,0.3c-8.9,7.2-18.7,13.3-30.3,21.4c4.8-14.3,8.5-26.3,12.9-38.1
			c2-5.2,1-7.9-3.6-10.8c-10.7-6.9-21-14.5-31.3-23.6c12.8,0,25.6-0.3,38.4,0.1c6.2,0.2,9-1.8,10.7-7.8c3.3-11.5,7.5-22.8,12.3-36.9
			c5,14.5,9.3,26.2,13,38.2c1.5,4.9,3.7,6.5,8.7,6.4c13.1-0.3,26.2-0.1,39.3-0.1C466.3,477.6,466.6,478.2,466.9,478.8z"/>
		<path class="st4" d="M478.3,434.4c12.4,0,24.9-0.3,37.3,0.1c5.9,0.2,9.1-1.1,10.8-7.5c3.3-12,7.8-23.6,12.5-37.6
			c4.6,13.9,8.9,25.8,12.5,37.8c1.7,5.5,4.4,7.5,10.2,7.3c12.7-0.5,25.3-0.1,38.6,1.7c-10,7-19.9,14.3-30.1,21
			c-5,3.3-6.8,6.2-4.3,12.4c4.6,11.5,8,23.4,12.7,37.2c-12.2-8.5-22.8-15.4-32.8-23.1c-4.9-3.7-8.3-4-13.2-0.2
			c-9.8,7.5-20.2,14.4-32,20.4c3.7-11.1,7.1-22.3,11.2-33.2c2.3-6.2,2.2-10-4.2-13.9c-10.3-6.2-19.9-13.6-29.8-20.6
			C477.9,435.7,478.1,435.1,478.3,434.4z"/>
		<path class="st4" d="M983.8,392.3c4.1,11.9,8.5,23.8,12.1,35.9c1.5,5,3.9,6.4,8.8,6.3c12.9-0.3,25.9-0.1,39.4,1.9
			c-10.3,7.2-20.5,14.6-31.1,21.5c-4.6,3-5.6,5.7-3.6,10.9c4.4,11.6,8,23.4,12.9,37.9c-10.5-7.3-19.6-12.4-27.1-19.1
			c-8.7-7.7-15.6-7.9-24.4-0.2c-7.8,6.8-16.9,12.1-27.5,19.5c4.7-14.1,8.3-25.9,12.8-37.4c2.1-5.5,1.3-8.5-3.7-11.7
			c-10.4-6.7-20.5-14.1-30.5-23.2c11.2,0,22.5-0.6,33.7,0.2c8.9,0.6,13.9-1.7,16-11.2c2.4-10.5,6.7-20.5,10.1-30.8
			C982.5,392.6,983.2,392.5,983.8,392.3z"/>
	</g>
</g>
</svg>
