<svg xmlns="http://www.w3.org/2000/svg" width="21.543" height="24.302" viewBox="0 0 21.543 24.302">
  <path id="Path_7127" data-name="Path 7127" d="M-508.664-761.441H-524.8a1.1,1.1,0,0,1-.76-1.193c.018-1.439.006-2.878.006-4.317v-.284c-.2,0-.369,0-.534,0a1.365,1.365,0,0,1-1.407-1.39q-.017-3.522,0-7.044a1.358,1.358,0,0,1,1.414-1.38c.171,0,.341,0,.527,0v-.314c0-2.419.01-4.839-.007-7.258a1.05,1.05,0,0,1,1.109-1.121c3.74.018,7.481.01,11.221,0a.749.749,0,0,1,.617.278q2.228,2.557,4.468,5.1a.882.882,0,0,1,.237.621c-.006.806,0,1.613,0,2.419v.267c.2,0,.362,0,.527,0a1.359,1.359,0,0,1,1.414,1.38q.02,3.522,0,7.044a1.364,1.364,0,0,1-1.407,1.39c-.171,0-.343,0-.534,0v.284c0,1.439-.012,2.878.006,4.317A1.1,1.1,0,0,1-508.664-761.441Zm-.232-15.617v-2.369h-4.029c-.467,0-.628-.161-.629-.625q0-2.218,0-4.435v-.284h-11.02v7.714Zm-15.678,14.385h15.681v-4.552h-15.681Zm12.332-6.759c.483,0,.915.005,1.348-.006.055,0,.13-.079.159-.138.143-.29.276-.585.409-.88.147-.328.29-.657.446-1.011.052.1.089.168.124.238.271.544.54,1.089.817,1.63.034.067.112.158.172.16.439.014.879.007,1.358.007-.06-.112-.1-.186-.139-.258-.467-.806-.931-1.614-1.406-2.416a.345.345,0,0,1,0-.406c.454-.768.9-1.543,1.341-2.316.038-.066.071-.134.123-.232-.465,0-.9,0-1.33.006a.242.242,0,0,0-.162.128c-.17.356-.331.716-.49,1.077-.106.24-.2.483-.321.764-.063-.129-.105-.212-.145-.3-.238-.507-.474-1.015-.717-1.52-.03-.062-.1-.151-.147-.152-.446-.012-.893-.007-1.369-.007.054.1.088.171.126.238.442.784.882,1.569,1.33,2.35a.334.334,0,0,1,0,.383C-511.221-771.223-511.715-770.351-512.241-769.431Zm-13.832-5.629a.718.718,0,0,0,.027.081c.464.826.925,1.654,1.4,2.474a.381.381,0,0,1,0,.445c-.465.789-.913,1.587-1.367,2.383-.04.071-.077.143-.132.247.449,0,.851-.007,1.253,0a.245.245,0,0,0,.265-.175c.242-.557.492-1.11.739-1.665.026-.059.059-.114.1-.2.32.64.621,1.247.929,1.851.035.069.106.169.163.171.446.014.894.008,1.372.008-.057-.107-.092-.176-.13-.242-.471-.813-.937-1.628-1.416-2.437a.344.344,0,0,1,0-.406c.45-.761.888-1.529,1.329-2.3.041-.071.074-.147.124-.247-.437,0-.839.006-1.241,0a.239.239,0,0,0-.265.168c-.227.537-.466,1.07-.7,1.6-.025.058-.057.113-.1.191-.293-.621-.565-1.207-.849-1.788-.035-.071-.123-.161-.189-.163C-525.185-775.067-525.619-775.06-526.073-775.06Zm13.144.22a3.075,3.075,0,0,0-2.967.162,1.542,1.542,0,0,0-.338,2.022,2.38,2.38,0,0,0,1.081.778,6.648,6.648,0,0,1,.9.421.525.525,0,0,1-.084.959,1.346,1.346,0,0,1-.644.095c-.44-.055-.874-.167-1.33-.26-.058.234-.117.519-.2.8-.042.139-.008.2.12.249a3.564,3.564,0,0,0,2.767-.013,1.571,1.571,0,0,0,.231-2.745,7.169,7.169,0,0,0-.907-.453,6.157,6.157,0,0,1-.656-.323.466.466,0,0,1,.065-.85.945.945,0,0,1,.456-.1c.411.039.819.114,1.256.179Zm-6.418,4.344v-4.551H-520.6v5.6h3.483V-770.5Z" transform="translate(527.503 785.742)" fill="#fca120"/>
</svg>
