<?xml version="1.0" encoding="utf-8"?>
<!-- Generator: Adobe Illustrator 24.1.1, SVG Export Plug-In . SVG Version: 6.00 Build 0)  -->
<svg version="1.1" id="Layer_1" xmlns="http://www.w3.org/2000/svg" xmlns:xlink="http://www.w3.org/1999/xlink" x="0px" y="0px"
	 viewBox="0 0 1535.8 1535.8" style="enable-background:new 0 0 1535.8 1535.8;" xml:space="preserve">
<style type="text/css">
	.st0{fill-rule:evenodd;clip-rule:evenodd;fill:#006600;}
	.st1{fill-rule:evenodd;clip-rule:evenodd;fill:#FF0000;}
	.st2{fill-rule:evenodd;clip-rule:evenodd;fill:#FCE12E;}
	.st3{fill-rule:evenodd;clip-rule:evenodd;fill:#231F20;}
	.st4{fill-rule:evenodd;clip-rule:evenodd;fill:#FFFFFF;}
	.st5{fill-rule:evenodd;clip-rule:evenodd;fill:#EC1C2E;}
	.st6{fill-rule:evenodd;clip-rule:evenodd;fill:#007AC1;}
</style>
<rect id="_362303728" x="-0.1" y="0" class="st0" width="621.1" height="1535.8"/>
<rect id="_362304448" x="621" y="0" class="st1" width="914.9" height="1535.8"/>
<g>
	<path id="_362304136" class="st2" d="M838.2,868c-1.4,0-3-0.1-4.9-0.4c-28.9-3.5-114.8-43.5-212-99.8s-174.6-111-192-134.4
		c-1.1-1.5-2-2.8-2.7-3.9L406,665.3c-1.1,1.9-2.3,2.2,0.7,6.4c16.9,23.2,94.6,78.1,192.3,134.8s184.1,96.8,212.4,99.9
		c5.1,0.5,4.2-1,5.8-2.6L838.2,868L838.2,868z"/>
	<path id="_362303776" class="st3" d="M426.6,631.1l-19.8,34.6c-0.2,0.3-0.4,0.6-0.5,0.8c-0.7,1.1-1,1.6,1.2,4.6
		c17.2,23.6,96.2,79,192.1,134.5c95.9,55.6,183.1,96.6,212.1,99.8c0.7,0.1,1.2,0.1,1.7,0.1l0,0c1.7,0,1.9-0.4,2.4-1.1
		c0.2-0.4,0.5-0.8,1-1.2l20.1-34.5c-1.1-0.1-2.3-0.2-3.6-0.3c-29.6-3.6-116.9-44.6-212.3-99.9c-95.3-55.3-174.4-110.6-192.3-134.6
		C427.9,632.9,427.2,632,426.6,631.1L426.6,631.1z M813.3,907.3L813.3,907.3c-0.5,0-1.1,0-1.9-0.1c-29.2-3.2-116.7-44.3-212.7-100
		S423.5,696,406.1,672.2c-2.6-3.6-2.4-4.8-1.2-6.6c0.1-0.2,0.3-0.5,0.5-0.7l21.3-37.1l0.7,1.2c0.7,1.2,1.7,2.5,2.6,3.8
		c17.8,23.8,96.6,79,191.8,134.2s182.2,96.2,211.6,99.7c1.9,0.2,3.4,0.4,4.7,0.4h1.5l-0.6,1.3l-21,36c-0.3,0.3-0.6,0.7-0.8,1
		C816.4,906.5,815.7,907.3,813.3,907.3L813.3,907.3z"/>
	<path id="_362304400" class="st2" d="M424.6,626.3c-1.9,2.4,0,5.3,3.3,9.6c17.5,23.4,94.9,78,192.1,134.4
		c97.2,56.4,183.1,96.4,211.9,99.9c5.4,0.6,8.6,1,9.9-2c1.3-3-4-10.2-4-10.2c1.2,3.4,3,6.9-2.1,6.4c-28.4-3.1-114.7-43.3-212.4-99.9
		c-97.7-56.6-175.5-111.6-192.4-134.8c-3-4.1,0-4.3,3.9-4.9C428.7,624.7,426.7,623.8,424.6,626.3L424.6,626.3z"/>
	<path id="_362304184" class="st3" d="M428.8,625.4c-1.8,0-2.6,0.3-3.6,1.5c-1.5,1.8,0,4.1,3.3,8.6c17.8,23.8,96.7,79,191.8,134.1
		c95.2,55.2,182.2,96.2,211.6,99.8c5.7,0.7,8.1,0.7,9-1.5c0.4-1-0.2-2.8-1.1-4.8c-0.1,0.4-0.2,0.8-0.4,1.1c-0.6,0.9-1.8,1.3-3.9,1
		c-29.1-3.2-116.6-44.3-212.7-100S447.5,654,430.2,630.2c-0.8-1.1-1.8-2.7-1.2-4c0.1-0.3,0.3-0.6,0.6-0.8
		C429.3,625.4,429.1,625.4,428.8,625.4L428.8,625.4z M837,871.4c-1.4,0-3.1-0.2-5.2-0.4c-29.6-3.6-116.9-44.7-212.2-100
		S445.2,660.4,427.3,636.4c-3.1-4.1-5.7-7.6-3.2-10.6c1.4-1.7,2.9-2.1,4.8-2.1c0.7,0,1.5,0,2.5,0.1s2.2,0.1,3.5,0.2l0.1,1.7
		l-0.6,0.1c-1.7,0.2-3.6,0.5-3.8,1.1c-0.1,0.2-0.1,0.8,1,2.4c17.2,23.6,96.2,78.9,192.1,134.5s183.2,96.7,212.1,99.8
		c1.2,0.1,2.1,0,2.3-0.3c0.4-0.6-0.2-2.4-0.8-3.9l-0.4-1l1.5-0.8c0.6,0.8,5.6,7.6,4.1,11C841.5,871.1,839,871.4,837,871.4L837,871.4
		z"/>
	<path id="_362336248" class="st2" d="M400.6,667.3c-1.7,2.3,0.3,5.7,3.5,10c17.5,23.3,94.9,78,192.1,134.3
		c97.2,56.4,183.1,96.4,211.9,99.9c5.3,0.6,8.2,0.8,9.9-1.9c0.4-2.4,0.4-1.5-1.1-5.2c0,0,0.1,2-4.9,1.4
		c-28.4-3.1-114.7-43.3-212.4-100C501.8,749.2,424,694.3,407.1,671.2c-3-4.1-1.9-3.4-1.6-5.3C403.6,666.1,402.9,665.5,400.6,667.3
		L400.6,667.3z"/>
	<path id="_362336176" class="st3" d="M401.2,667.9c-1.2,1.8,0.5,4.8,3.6,8.9c17.8,23.8,96.7,79,191.8,134.1
		c95.2,55.2,182.2,96.2,211.6,99.8c1.9,0.2,3.4,0.4,4.6,0.4l0,0c2.3,0,3.5-0.5,4.3-1.8V909c0.2-1.2,0.2-1.2-0.4-2.5
		c-0.1-0.1-0.1-0.3-0.2-0.5c-1,0.6-2.4,0.9-4.8,0.6C782.5,903.4,695,862.2,599,806.5c-96-55.7-175.2-111.2-192.6-135
		c-2.2-3-2.4-3.7-2.1-4.9c-0.1,0-0.1,0-0.2,0C403.2,666.8,402.6,666.8,401.2,667.9L401.2,667.9z M812.8,912.8L812.8,912.8
		c-1.3,0-2.9-0.2-4.9-0.4c-29.6-3.6-116.9-44.7-212.2-100c-95.3-55.2-174.4-110.6-192.3-134.6c-3.1-4.1-5.7-8.1-3.5-11l0.2-0.2
		c1.9-1.5,3-1.5,4.1-1.5c0.4,0,0.7,0,1.2-0.1l1.1-0.2l-0.1,1.1c-0.1,0.5-0.2,0.9-0.3,1.2c-0.2,0.5-0.3,0.7,1.8,3.5
		c17.3,23.6,96.3,78.9,192.1,134.5c95.8,55.7,183,96.7,212,99.9c3.1,0.3,4-0.4,4-0.6l1.6-0.3c0.3,0.8,0.6,1.4,0.8,1.8
		c0.7,1.7,0.8,1.9,0.5,3.4l-0.2,0.7C817.2,912.5,814.9,912.8,812.8,912.8L812.8,912.8z"/>
	<path id="_362335960" class="st2" d="M425.2,895.1c22.4,10.9,101.6,19,195.9,19c94,0,173-8,195.7-18.9l12-20.4
		c-23,11.6-107.3,20.3-207.7,20.3c-100.6,0-184.9-8.7-207.8-20.3L425.2,895.1L425.2,895.1z"/>
	<path id="_362336104" class="st3" d="M425.8,894.4c23.2,11.1,103.4,18.8,195.3,18.8c91.6,0,171.7-7.7,195.1-18.7l10.5-17.8
		C800,888.1,716.8,895.9,621,895.9s-179.1-7.9-205.7-19.2L425.8,894.4L425.8,894.4z M621.1,914.9c-92.5,0-173.2-7.8-196.3-19.1
		l-0.2-0.1l-13.4-23l2.5,1.3c23.3,11.9,108.6,20.2,207.4,20.2c98.6,0,183.9-8.3,207.4-20.2l2.6-1.3l-13.6,23l-0.2,0.1
		C793.8,907.1,713.2,914.9,621.1,914.9L621.1,914.9z"/>
	<path id="_362336224" class="st2" d="M820.1,889.8c-2.4,1.9-3.4,2.5-5.9,3.5c-26.5,10.2-102.9,17.5-193.1,17.5
		s-166.6-7.3-193.1-17.5c-2.3-0.9-3.8-1.8-5.9-3.4c-0.5,1.2-0.6,2.3-0.6,2.3c0,13.8,89.4,25,199.7,25s199.7-11.2,199.7-25
		C820.8,892.2,820.6,891,820.1,889.8L820.1,889.8z"/>
	<path id="_362335240" class="st3" d="M422.5,891.2c-0.2,0.6-0.2,1-0.2,1c0,11.6,79.9,24,198.8,24s198.8-12.5,198.8-24.1l0,0
		c0,0-0.1-0.5-0.2-1c-1.9,1.4-3,2.1-5.2,2.9c-27.4,10.5-105.2,17.6-193.4,17.6c-88.3,0-166-7.1-193.4-17.6
		C425.6,893.3,424.1,892.4,422.5,891.2L422.5,891.2z M621.1,918c-98.6,0-200.5-9.6-200.5-25.8c0-0.1,0.1-1.4,0.7-2.6l0.4-1l0.8,0.6
		c2,1.5,3.4,2.4,5.7,3.3C455.5,902.9,533,910,621.1,910c88,0,165.5-7,192.8-17.4c2.4-0.9,3.3-1.5,5.7-3.4l0.8-0.7l0.4,1
		c0.6,1.3,0.8,2.6,0.8,2.6C821.6,908.3,719.7,918,621.1,918L621.1,918z"/>
	<path id="_362335936" class="st2" d="M412.6,867.9c-0.8,2.4,1.1,4.5,3.4,5.4c26.9,10.9,108.5,18.9,205.1,18.9
		c94,0,182.7-9.7,205.1-18.9c2.3-0.9,4.1-2.2,3.6-4.8c2.3,0.9,2.4,3.7,2.4,3.7c0,14.5-94.5,26.3-211.1,26.3S410,886.7,410,872.2
		C410,872.1,409.8,869.5,412.6,867.9L412.6,867.9z"/>
	<path id="_362335744" class="st3" d="M411.7,869.8c-0.9,1.1-0.8,2.2-0.8,2.3c0,12.3,84.5,25.5,210.3,25.5s210.3-13.2,210.3-25.5
		c0,0-0.1-1.1-0.7-2c-0.5,2.4-3,3.5-4.1,3.9c-22.5,9.1-110.4,18.9-205.4,18.9s-177.5-7.6-205.4-18.9
		C413.8,873.3,412,871.7,411.7,869.8L411.7,869.8z M621.1,899.3c-104.2,0-211.9-10.2-211.9-27.1c0-0.1-0.2-3.1,3.1-4.9l1.9-1.1
		l-0.7,2.1c-0.7,1.9,1,3.6,2.9,4.3c27.3,11.1,111.5,18.8,204.8,18.8c94.8,0,182.5-9.7,204.8-18.8c2.6-1.1,3.4-2.1,3.1-3.9l-0.3-1.5
		l1.5,0.6c2.8,1.1,2.9,4.3,2.9,4.5C833,889.1,725.3,899.3,621.1,899.3L621.1,899.3z"/>
	<path id="_362335720" class="st2" d="M855.9,758.3c-1.2,1.1-2.6,2.1-4.4,3.3C825,779,731.9,791.8,621,791.8
		c-110.8,0-204-12.8-230.4-30.3c-1.7-1.1-3.1-2.1-4.2-3l0.1,15.2c0,3.4-0.9,4.6,3.7,7.8C416,799,509.6,812,621,812
		c111.5,0,205.1-13,230.9-30.5c4.6-3.1,3.1-4.5,3.7-7.8L855.9,758.3L855.9,758.3z"/>
	<path id="_362335576" class="st3" d="M387.2,760.3v13.4c0,0.5,0,1,0,1.4c-0.1,2.3-0.1,3.3,3.4,5.7c26.4,17.9,121.1,30.3,230.4,30.3
		s204.1-12.5,230.4-30.4c3.1-2.1,3.1-3.1,3.1-4.9c0-0.7,0-1.4,0.2-2.4l0.2-13.4c-0.9,0.7-2,1.4-3.1,2.1
		c-27.1,17.9-122.1,30.4-230.9,30.4S417.2,780,390,762.1C389,761.5,388.1,760.9,387.2,760.3L387.2,760.3z M621,812.8
		c-109.6,0-204.7-12.6-231.3-30.6c-4.1-2.8-4.3-4.4-4.1-7.1c0-0.4,0-0.9,0-1.3l-0.1-17l1.4,1.2c1.1,0.9,2.4,1.9,4.1,3
		c27,17.6,121.5,30,230,30s203.1-12.4,230-30.1c1.7-1.1,3.2-2.1,4.3-3.2l1.4-1.3l-0.3,17.4c-0.2,0.9-0.2,1.6-0.2,2.2
		c0,2-0.1,3.7-3.9,6.2C825.8,800.2,730.6,812.8,621,812.8L621,812.8z"/>
	<path id="_362335552" class="st2" d="M852.2,749.6c2.7,3.6,4.4,7.6-0.2,10.7c-25.8,17.5-119.4,30.5-230.9,30.5
		c-111.4,0-205-13-230.8-30.5c-4.6-3.1-2.9-7.4-0.1-10.9c0,0-7,4.4-6.9,7.9c-0.5,4.6,2.6,6.9,7.5,10.1
		c26.4,17.4,119.6,30.2,230.4,30.2c110.9,0,204-12.8,230.4-30.2c4.9-3.2,7.9-5.3,7.5-10.1C858.6,752.4,852.2,749.6,852.2,749.6
		L852.2,749.6z"/>
	<path id="_362335648" class="st3" d="M387.2,752.6c-1.7,1.5-3.2,3.3-3.2,4.6c-0.5,4.2,2.3,6.2,7.1,9.4c26.9,17.7,121.5,30,229.9,30
		c108.5,0,203.1-12.4,230-30.1c5-3.3,7.4-5.1,7.1-9.3c-0.2-2.3-1.9-4-3.5-5.2c0.8,1.6,1.1,3.1,0.9,4.5c-0.3,1.7-1.3,3.2-3.2,4.4
		C825.8,779,730.6,791.6,621,791.6S416.3,779,389.7,761c-1.8-1.2-2.9-2.7-3.2-4.5C386.5,755.4,386.6,754.1,387.2,752.6L387.2,752.6z
		 M621.1,798.4c-108.8,0-203.7-12.5-230.9-30.3c-4.5-3-8.5-5.6-7.9-10.9c-0.1-3.7,6.6-8,7.3-8.5l1.1,1.2c-1.9,2.5-2.8,4.7-2.5,6.4
		c0.2,1.3,1,2.4,2.4,3.3c26.3,17.9,121.1,30.3,230.4,30.3c109.4,0,204.1-12.5,230.4-30.4c1.4-1,2.2-2.1,2.4-3.3
		c0.3-1.7-0.5-3.7-2.5-6.2l-1.9-2.5l2.9,1.2c0.3,0.1,7,3,7.4,8.4s-3,7.7-7.9,10.8C824.9,785.9,729.9,798.4,621.1,798.4L621.1,798.4z
		"/>
	<path id="_362335360" class="st2" d="M855.7,772.5c-0.5-0.2,0.9,4.9-3.7,8.1C826.2,798.1,732.6,811,621.1,811
		c-111.4,0-205-12.9-230.8-30.4c-4.6-3.1-4-4.5-3.9-8.2c0,0-2.5,1.8-3.2,5.1c-0.3,4.5,2.6,6.9,7.5,10.1
		c26.4,17.3,119.6,30.1,230.4,30.1c110.9,0,204-12.8,230.4-30.1c4.9-3.2,7.4-5.2,7.5-10.1C858.7,774.7,857,773.4,855.7,772.5
		L855.7,772.5z"/>
	<path id="_362335408" class="st3" d="M385.5,774.5c-0.6,0.8-1.2,1.8-1.4,3.1c-0.2,3.7,1.9,5.8,7.2,9.2c26.9,17.7,121.5,30,229.9,30
		c108.5,0,203-12.3,230-30c5-3.3,7-5.1,7.1-9.4c-0.2-1.6-1-2.6-1.8-3.4c-0.1,1.8-0.7,4.9-3.9,7.2c-26.6,18-121.7,30.6-231.3,30.6
		S416.6,799.2,390,781.2C386,778.6,385.4,777,385.5,774.5L385.5,774.5z M621.1,818.5c-108.7,0-203.7-12.4-230.9-30.3
		c-4.8-3.2-8.2-5.8-7.9-10.8c0.7-3.7,3.4-5.6,3.5-5.7l1.4-1l-0.1,2.7c-0.1,2.8-0.2,3.8,3.6,6.4c26.4,17.8,121.1,30.3,230.4,30.3
		s204.1-12.5,230.4-30.3c3.1-2.1,3.2-5.2,3.2-6.6c0-0.6,0-1.6,1-1.6l0.4,0.1l0.2,0.1c1.3,1,3.2,2.4,3.5,5.5c-0.1,5.4-3,7.7-7.9,10.8
		C824.8,806,729.9,818.5,621.1,818.5L621.1,818.5z"/>
	<path id="_362335288" class="st2" d="M830,661c-5.6,13.8-97,24.8-208.9,24.8c-110.4,0-200.8-10.7-208.6-24.2l11.2-20.6
		c6.9,12.9,92.6,23.1,197.4,23.1s190.6-10.2,197.4-23.1L830,661L830,661z"/>
	<path id="_362334544" class="st3" d="M413.5,661.5c9.2,13.2,99.8,23.4,207.6,23.4c108.4,0,201.1-10.7,208-23.9l-10.6-18.5
		c-11.3,12.8-94.6,22.3-197.3,22.3s-185.9-9.5-197.3-22.3L413.5,661.5L413.5,661.5z M621.1,686.6c-111.2,0-201.2-10.6-209.3-24.7
		l-0.2-0.4l12.2-22.4l0.7,1.4c6.8,12.7,93.1,22.6,196.7,22.6c103.5,0,189.9-9.9,196.7-22.6l0.7-1.3l12.5,21.7l-0.2,0.4
		C824.9,675.7,734.8,686.6,621.1,686.6L621.1,686.6z"/>
	<path id="_362334448" class="st2" d="M820.1,639.3c-2.4,1.9-3.4,2.5-5.9,3.5c-26.5,10.2-102.9,17.5-193.1,17.5S454.5,653,428,642.8
		c-2.3-0.9-3.8-1.8-5.9-3.4c-0.5,1.2-0.6,2.3-0.6,2.3c0,13.8,89.4,25,199.7,25s199.7-11.2,199.7-25
		C820.8,641.7,820.6,640.5,820.1,639.3L820.1,639.3z"/>
	<path id="_362335024" class="st3" d="M422.5,640.8c-0.2,0.6-0.2,1-0.2,1c0,11.6,79.9,24,198.8,24s198.8-12.5,198.9-24.1l0,0
		c0,0-0.1-0.4-0.2-1c-1.9,1.5-3,2.1-5.2,2.9c-27.4,10.5-105.1,17.6-193.4,17.6s-166-7.1-193.4-17.6
		C425.5,642.8,424.1,641.9,422.5,640.8L422.5,640.8z M621.1,667.5c-98.6,0-200.5-9.6-200.5-25.8c0-0.1,0.1-1.4,0.7-2.6l0.4-1
		l0.8,0.6c1.9,1.5,3.4,2.4,5.7,3.3c27.2,10.4,104.7,17.5,192.8,17.5s165.5-7,192.8-17.4c2.4-0.9,3.3-1.5,5.7-3.4l0.8-0.7l0.4,1
		c0.6,1.2,0.7,2.6,0.8,2.6C821.6,657.9,719.7,667.5,621.1,667.5L621.1,667.5z"/>
	<path id="_362334640" class="st2" d="M412.6,658c-0.8,2.4,1.1,4.5,3.4,5.4c26.9,11,108.5,18.9,205.1,18.9c94,0,182.7-9.8,205.1-19
		c2.3-0.9,4.1-2.2,3.6-4.9c2.3,1,2.4,3.7,2.4,3.7c0,14.6-94.5,26.4-211.1,26.4S410,676.7,410,662.1C410,662.3,409.8,659.6,412.6,658
		L412.6,658z"/>
	<path id="_362334664" class="st3" d="M411.7,659.9c-0.9,1.1-0.8,2.3-0.8,2.3c0,12.4,84.5,25.6,210.2,25.6
		c125.8,0,210.3-13.2,210.3-25.5c0,0-0.1-1.1-0.7-2c-0.5,2.4-3,3.5-4.1,3.9c-22.5,9.2-110.4,19-205.4,19s-177.5-7.6-205.4-19
		C413.8,663.4,412,661.9,411.7,659.9L411.7,659.9z M621.1,689.5c-104.2,0-211.9-10.2-211.9-27.2c0-0.1-0.2-3.2,3.1-5l1.9-1.1
		l-0.7,2.1c-0.7,1.9,1,3.6,2.9,4.3c27.3,11.1,111.5,18.9,204.8,18.9c94.8,0,182.5-9.8,204.8-18.9c2.6-1.1,3.5-2.2,3.1-3.9l-0.3-1.5
		l1.5,0.6c2.8,1.2,2.9,4.3,2.9,4.5C833,679.3,725.3,689.5,621.1,689.5L621.1,689.5z"/>
	<path id="_362335120" class="st2" d="M852.3,767.9c0,127.7-103.5,231.2-231.2,231.2S389.9,895.6,389.9,767.9
		s103.5-231.2,231.2-231.2S852.3,640.2,852.3,767.9L852.3,767.9z M621.1,563.5c-112.9,0-204.4,91.5-204.4,204.4
		s91.5,204.4,204.4,204.4s204.4-91.5,204.4-204.4S734,563.5,621.1,563.5z"/>
	<path id="_362334568" class="st3" d="M621.1,564.3c-112.2,0-203.6,91.3-203.6,203.6s91.3,203.6,203.6,203.6s203.6-91.3,203.6-203.6
		C824.7,655.6,733.4,564.3,621.1,564.3L621.1,564.3z M621.1,973.1c-113.2,0-205.2-92.1-205.2-205.2c0-113.2,92.1-205.2,205.2-205.2
		c113.2,0,205.2,92.1,205.2,205.2C826.3,881.1,734.3,973.1,621.1,973.1L621.1,973.1z M621.1,537.5c-127,0-230.4,103.3-230.4,230.4
		S494,998.3,621.1,998.3c127,0,230.4-103.3,230.4-230.4S748.1,537.5,621.1,537.5L621.1,537.5z M621.1,999.9
		c-128,0-232-104.1-232-232.1s104.1-232,232-232s232,104.1,232,232S749.1,999.9,621.1,999.9z"/>
	<path id="_362334856" class="st3" d="M621.1,544.2c-123.3,0-223.7,100.3-223.7,223.7s100.3,223.7,223.7,223.7
		c123.3,0,223.7-100.3,223.7-223.7C844.8,644.6,744.4,544.2,621.1,544.2z M621.1,993.2c-124.3,0-225.3-101.1-225.3-225.3
		c0-124.3,101.1-225.3,225.3-225.3c124.3,0,225.4,101.1,225.4,225.3S745.4,993.2,621.1,993.2L621.1,993.2z"/>
	<path id="_362334784" class="st3" d="M621.1,557.6c-115.9,0-210.3,94.3-210.3,210.3c0,115.9,94.3,210.3,210.3,210.3
		c115.9,0,210.3-94.3,210.3-210.3C831.4,651.9,737,557.6,621.1,557.6L621.1,557.6z M621.1,979.8c-116.9,0-211.9-95.1-211.9-211.9
		C409.2,651,504.3,556,621.1,556C738,555.9,833,651,833,767.9C833,884.7,738,979.8,621.1,979.8z"/>
	<path id="_362334520" class="st2" d="M386.4,778c1.2-1.1,2.6-2.1,4.4-3.3c26.4-17.5,119.6-30.3,230.4-30.3s204,12.8,230.4,30.3
		c1.7,1.1,3.1,2.1,4.2,3l-0.1-15.2c0-3.4,0.9-4.7-3.7-7.8c-25.8-17.5-119.4-30.5-230.8-30.5c-111.5,0-205.1,13-230.9,30.5
		c-4.6,3.1-3.1,4.5-3.7,7.8L386.4,778L386.4,778z"/>
	<path id="_362334616" class="st3" d="M621.2,725.1c-109.3,0-204.1,12.5-230.4,30.4c-3.1,2.1-3.1,3.1-3.1,4.9c0,0.7,0,1.4-0.2,2.4
		l-0.2,13.4c0.9-0.7,1.9-1.3,3.1-2.1c27.1-17.9,122.1-30.4,230.9-30.4s203.7,12.5,230.9,30.4c1.1,0.7,2.1,1.4,2.9,2v-13.4
		c0-0.5,0-1,0-1.4c0.1-2.3,0.1-3.3-3.4-5.7C825.2,737.6,730.5,725.1,621.2,725.1L621.2,725.1z M385.5,779.9l0.3-17.3
		c0.2-0.9,0.2-1.6,0.2-2.2c0.1-2,0.1-3.7,3.9-6.2c26.6-18.1,121.7-30.7,231.3-30.7s204.7,12.6,231.3,30.6c4.1,2.8,4.3,4.4,4.1,7.1
		c0,0.4,0,0.9,0,1.3l0.1,17l-1.4-1.2c-1.1-0.9-2.4-1.8-4.1-3c-26.9-17.7-121.5-30.1-229.9-30.1c-108.5,0-203.1,12.4-230,30.2
		c-1.9,1.2-3.2,2.2-4.3,3.2L385.5,779.9L385.5,779.9z"/>
	<path id="_362334304" class="st2" d="M390.1,786.6c-2.7-3.6-4.4-7.6,0.2-10.7c25.8-17.6,119.4-30.5,230.9-30.5
		c111.4,0,205,12.9,230.8,30.5c4.6,3.1,2.9,7.4,0.1,10.9c0,0,7-4.4,6.9-7.9c0.5-4.6-2.6-6.9-7.5-10.1
		c-26.4-17.4-119.6-30.2-230.4-30.2c-110.9,0-204,12.8-230.4,30.2c-4.9,3.2-7.9,5.3-7.5,10.1C383.6,783.9,390.1,786.6,390.1,786.6
		L390.1,786.6z"/>
	<path id="_362334328" class="st3" d="M621.1,739.5c-108.5,0-203.1,12.4-230,30.1c-5,3.3-7.4,5.1-7.1,9.3c0.2,2.3,1.9,4,3.5,5.2
		c-0.8-1.7-1.1-3.1-0.9-4.5c0.3-1.7,1.3-3.2,3.2-4.4c26.5-18.1,121.7-30.7,231.3-30.7s204.7,12.6,231.3,30.6
		c1.8,1.2,2.9,2.7,3.2,4.4c0.2,1.2,0,2.5-0.6,4c1.7-1.5,3.2-3.3,3.2-4.6c0.4-4.2-2.3-6.2-7.1-9.4
		C824.1,751.9,729.6,739.5,621.1,739.5L621.1,739.5z M392.6,788.6l-2.9-1.2c-0.3-0.1-7-3-7.4-8.4s3.1-7.7,7.9-10.8
		c27.1-17.9,122.1-30.3,230.9-30.3s203.7,12.5,230.8,30.3c4.2,2.8,7.8,5.2,7.9,9.7v0.3c0,0.3,0,0.6-0.1,0.8c0.1,3.7-6.6,8-7.3,8.5
		l-1.1-1.2c2-2.6,2.8-4.7,2.5-6.4c-0.2-1.3-1-2.4-2.4-3.3c-26.3-17.9-121-30.4-230.4-30.4s-204.1,12.5-230.4,30.4
		c-1.4,1-2.2,2.1-2.4,3.3c-0.3,1.6,0.5,3.7,2.5,6.2L392.6,788.6L392.6,788.6z"/>
	<path id="_362333848" class="st2" d="M386.5,763.8c0.5,0.2-0.9-4.9,3.7-8.1c25.8-17.5,119.4-30.4,230.9-30.4
		c111.4,0,205,12.9,230.8,30.4c4.6,3.1,4,4.5,3.9,8.2c0,0,2.5-1.8,3.2-5.1c0.3-4.5-2.6-6.9-7.5-10.1
		c-26.4-17.3-119.6-30.1-230.4-30.1c-110.9,0-204,12.8-230.4,30.1c-4.9,3.2-7.4,5.2-7.5,10.1C383.5,761.6,385.3,762.9,386.5,763.8
		L386.5,763.8z"/>
	<path id="_362334376" class="st3" d="M621.1,719.4c-108.5,0-203,12.3-230,30c-5,3.3-7.1,5.1-7.1,9.4c0.2,1.6,1,2.6,1.8,3.4
		c0.1-1.9,0.6-5,3.9-7.2c26.6-18,121.7-30.6,231.3-30.6S825.7,737,852.3,755c3.8,2.6,4.4,4.2,4.4,6.8c0.6-0.8,1.2-1.8,1.4-3.1
		c0.2-3.7-1.9-5.8-7.1-9.2C824.1,731.8,729.5,719.4,621.1,719.4L621.1,719.4z M855,765.5l0.1-2.7c0.1-2.8,0.2-3.9-3.6-6.4
		c-26.4-17.8-121.1-30.3-230.4-30.3S417,738.5,390.7,756.4c-3.1,2.1-3.2,5.2-3.2,6.6c0,0.6,0,1.6-1,1.6l0,0l-0.5-0.2
		c-1.4-1-3.3-2.5-3.7-5.6c0.1-5.5,3-7.7,7.9-10.9c27.2-17.8,122.1-30.3,230.9-30.3c108.7,0,203.6,12.4,230.8,30.3
		c4.8,3.2,8.2,5.8,7.9,10.8c-0.7,3.7-3.4,5.7-3.5,5.7L855,765.5L855,765.5z"/>
	<polygon id="_362334280" class="st2" points="631.2,1002.4 611,1002.4 611,533.3 631.2,533.3 	"/>
	<path id="_362334088" class="st3" d="M611.9,1001.6h18.4V534.2h-18.4V1001.6z M632,1003.3h-21.8V532.5H632V1003.3z"/>
	<path id="_362333920" class="st2" d="M614.4,1002.4c0,1.8-1.5,3.4-3.4,3.4c-1.8,0-3.3-1.5-3.3-3.4V533.3c0-1.8,1.5-3.4,3.3-3.4
		s3.4,1.5,3.4,3.4V1002.4z"/>
	<path id="_362333896" class="st3" d="M611,530.8c-1.4,0-2.5,1.1-2.5,2.5v469.1c0,1.4,1.1,2.5,2.5,2.5s2.5-1.1,2.5-2.5V533.3
		C613.6,531.9,612.4,530.8,611,530.8L611,530.8z M611,1006.6c-2.3,0-4.2-1.9-4.2-4.2V533.3c0-2.3,1.9-4.2,4.2-4.2s4.2,1.9,4.2,4.2
		v469.1C615.2,1004.8,613.4,1006.6,611,1006.6z"/>
	<path id="_362334064" class="st2" d="M634.5,1002.4c0,1.8-1.5,3.4-3.4,3.4c-1.8,0-3.4-1.5-3.4-3.4V533.3c0-1.8,1.5-3.4,3.4-3.4
		c1.8,0,3.4,1.5,3.4,3.4V1002.4z"/>
	<path id="_362333872" class="st3" d="M631.2,530.8c-1.4,0-2.5,1.1-2.5,2.5v469.1c0,1.4,1.1,2.5,2.5,2.5s2.5-1.1,2.5-2.5V533.3
		C633.7,531.9,632.5,530.8,631.2,530.8L631.2,530.8z M631.2,1006.6c-2.3,0-4.2-1.9-4.2-4.2V533.3c0-2.3,1.9-4.2,4.2-4.2
		s4.2,1.9,4.2,4.2v469.1C635.3,1004.8,633.5,1006.6,631.2,1006.6z"/>
	<path id="_362333416" class="st2" d="M412.2,872.8c5.6-13.8,97-24.8,208.9-24.8c110.4,0,200.8,10.7,208.6,24.2l-11.2,20.6
		c-6.9-12.9-92.6-23.1-197.4-23.1s-190.6,10.2-197.4,23.1L412.2,872.8L412.2,872.8z"/>
	<path id="_362333200" class="st3" d="M413.1,872.7l10.6,18.5c11.3-12.8,94.6-22.3,197.3-22.3s186,9.5,197.3,22.3l10.3-19
		c-9.2-13.2-99.8-23.4-207.6-23.4C512.7,848.8,420.1,859.5,413.1,872.7L413.1,872.7z M818.5,894.6l-0.7-1.4
		c-6.8-12.7-93.1-22.6-196.7-22.6c-103.5,0-189.9,9.9-196.7,22.6l-0.7,1.3l-12.5-21.7l0.2-0.4c5.9-14.4,96-25.3,209.7-25.3
		c111.2,0,201.2,10.6,209.3,24.7l0.2,0.4L818.5,894.6L818.5,894.6z"/>
	<path id="_362333248" class="st2" d="M430.2,899.4c-6.3-5.1-4.6-7.5-2.1-8.5c26.5-10.2,103-17.5,193.1-17.5
		c90.2,0,166.6,7.4,193.1,17.5c2.3,0.9,3.6,3.5-1.8,8.3c8.7-3.5,8.4-7.2,8.4-7.2c0-13.8-89.4-24.9-199.7-24.9S421.5,878.3,421.5,892
		C421.4,892,420.6,895.5,430.2,899.4L430.2,899.4z"/>
	<path id="_362333560" class="st3" d="M621.1,872.6c88.3,0,166,7.1,193.4,17.6c1.4,0.5,2.3,1.5,2.5,2.7c0.2,1.1-0.2,2.3-1,3.6
		c3.9-2.4,3.9-4.4,3.9-4.4c0-11.7-79.9-24.1-198.8-24.1s-198.8,12.5-198.8,24.1c0,0.1-0.2,2,3.8,4.5c-0.9-1.3-1.3-2.5-1.1-3.5
		c0.1-0.9,0.7-2.1,2.7-2.8C455.2,879.6,532.9,872.6,621.1,872.6L621.1,872.6z M429.9,900.2c-9.9-4-9.3-7.9-9.3-8.3
		c0-16,101.9-25.6,200.5-25.6s200.5,9.6,200.5,25.8c0,0.4,0.1,4.4-8.9,7.9l-0.9-1.4c3.4-2.9,3.7-4.6,3.5-5.4
		c-0.1-0.8-0.9-1.2-1.4-1.5c-27.2-10.4-104.7-17.5-192.8-17.5c-88,0-165.5,7-192.8,17.4c-0.7,0.3-1.5,0.7-1.7,1.5
		c-0.1,0.7,0.2,2.4,4,5.5L429.9,900.2L429.9,900.2z"/>
	<path id="_362333536" class="st2" d="M827.2,877.4c2.8-3.2,1.3-6.2-1-7.1c-26.9-11-108.5-18.9-205.1-18.9c-94,0-182.7,9.8-205.1,19
		c-2.3,0.9-4.5,3.3-1.9,7c-5-3.4-4.1-5.8-4.1-5.8c0-14.6,94.5-26.4,211.1-26.4s211.1,11.8,211.1,26.4
		C832.2,871.5,832,875.6,827.2,877.4L827.2,877.4z"/>
	<path id="_362333608" class="st3" d="M621.1,850.5c95,0,177.5,7.6,205.4,19c1.5,0.6,2.5,1.8,2.9,3.3c0.2,0.6,0.2,1.4,0,2.3
		c1.8-1.6,2-3.6,2-3.7c0-12.3-84.5-25.5-210.3-25.5s-210.3,13.2-210.3,25.6l-0.1,0.3c0,0-0.3,1.1,1.3,2.8c-0.1-0.6,0-1.1,0.2-1.7
		c0.4-1.5,1.7-2.7,3.4-3.4C438.1,860.4,526,850.5,621.1,850.5L621.1,850.5z M827.4,878.2l-0.9-1.3c1.1-1.2,1.5-2.5,1.2-3.6
		c-0.2-1-0.9-1.7-1.9-2.1c-27.3-11.1-111.5-18.9-204.8-18.9c-94.9,0-182.5,9.8-204.8,18.9c-0.6,0.2-2,1-2.4,2.3
		c-0.3,1,0,2.1,0.9,3.4l-1.2,1.2c-4.9-3.2-4.6-5.9-4.4-6.6c0.5-17,108-27.1,212-27.1c104.2,0,211.9,10.2,211.9,27.2
		C833,871.7,832.7,876.2,827.4,878.2L827.4,878.2z"/>
	<path id="_362333056" class="st2" d="M817,638.6c-22.4-10.9-101.6-19-195.9-19c-94,0-173,8-195.8,18.9l-12,20.4
		c23-11.7,107.3-20.3,207.7-20.3c100.6,0,185,8.7,207.8,20.4L817,638.6L817,638.6z"/>
	<path id="_362332888" class="st3" d="M621.1,637.8c95.9,0,179.1,7.9,205.7,19.3l-10.4-17.8c-23.2-11.1-103.4-18.8-195.3-18.8
		c-91.6,0-171.7,7.7-195.2,18.7l-10.5,17.9C442.1,645.6,525.4,637.8,621.1,637.8L621.1,637.8z M831.1,661l-2.6-1.3
		c-23.3-11.9-108.6-20.3-207.4-20.3c-98.6,0-183.9,8.3-207.4,20.2l-2.5,1.3l13.6-23.1l0.2-0.1c23.4-11.2,104-19,196.1-19
		c92.5,0,173.2,7.8,196.3,19.1l0.2,0.1L831.1,661L831.1,661z"/>
	<path id="_362333632" class="st2" d="M422.1,643.9c2.4-1.9,3.4-2.5,5.9-3.5c26.5-10.2,103-17.5,193.1-17.5
		c90.2,0,166.6,7.3,193.1,17.5c2.3,0.9,3.8,1.8,5.9,3.4c0.5-1.2,0.6-2.3,0.6-2.3c0-13.8-89.4-25-199.7-25s-199.7,11.2-199.7,25
		C421.4,641.5,421.6,642.7,422.1,643.9L422.1,643.9z"/>
	<path id="_362333128" class="st3" d="M422.3,641.5c0,0,0.1,0.5,0.2,1c1.9-1.4,3-2.1,5.2-2.9c27.4-10.5,105.1-17.6,193.4-17.6
		s166,7.1,193.4,17.6c2.1,0.8,3.6,1.7,5.2,2.8c0.2-0.6,0.2-1,0.2-1c0-11.6-79.9-24-198.8-24C502.2,617.4,422.3,629.9,422.3,641.5
		L422.3,641.5L422.3,641.5z M421.8,645.2l-0.4-1c-0.6-1.3-0.8-2.6-0.8-2.6c0-16.3,101.9-25.9,200.5-25.9s200.5,9.6,200.5,25.8
		c0,0.1-0.1,1.4-0.7,2.6l-0.4,1l-0.8-0.6c-2-1.5-3.4-2.4-5.7-3.3c-27.2-10.4-104.7-17.5-192.8-17.5s-165.5,7-192.8,17.4
		c-2.4,0.9-3.3,1.5-5.7,3.4L421.8,645.2L421.8,645.2z"/>
	<path id="_362333392" class="st2" d="M829.6,665.9c0.8-2.4-1.1-4.5-3.4-5.4c-26.9-11-108.5-18.9-205.1-18.9
		c-94,0-182.7,9.8-205.1,19c-2.3,0.9-4.1,2.2-3.6,4.9c-2.3-0.9-2.4-3.7-2.4-3.7c0-14.6,94.5-26.4,211.1-26.4s211.1,11.8,211.1,26.4
		C832.2,661.7,832.4,664.3,829.6,665.9L829.6,665.9z"/>
	<path id="_362332408" class="st3" d="M621.1,640.7c95,0,177.5,7.6,205.4,19c1.9,0.8,3.7,2.3,4,4.3c0.9-1.1,0.8-2.2,0.8-2.3
		c0-12.4-84.5-25.6-210.3-25.6s-210.3,13.2-210.3,25.6c0,0,0.1,1.1,0.7,2c0.5-2.4,3-3.5,4.1-3.9C438.1,650.5,526,640.7,621.1,640.7
		L621.1,640.7z M828.1,667.7l0.7-2.1c0.7-1.9-1-3.6-2.9-4.3c-27.3-11.1-111.5-18.9-204.8-18.9c-94.9,0-182.5,9.8-204.8,18.9
		c-2.6,1.1-3.5,2.2-3.1,3.9l0.3,1.5l-1.5-0.6c-2.8-1.2-2.9-4.3-2.9-4.5c0-17.1,107.8-27.3,212-27.3S833,644.5,833,661.5
		c0,0.1,0.2,3.2-3.1,5L828.1,667.7L828.1,667.7z"/>
	<path id="_362332384" class="st2" d="M404,667.8c1.4,0,3,0.2,4.9,0.4c28.9,3.4,114.8,43.5,212,99.8s174.6,111,192,134.4
		c1.1,1.5,2,2.8,2.7,3.9l20.6-35.9c1.1-1.9,2.3-2.2-0.7-6.4c-16.9-23.1-94.6-78.1-192.3-134.8s-184.1-96.8-212.4-99.9
		c-5.1-0.5-4.2,1-5.8,2.6L404,667.8L404,667.8z"/>
	<path id="_362332288" class="st3" d="M405.5,667c1,0.1,2.2,0.2,3.6,0.3c29.6,3.5,116.9,44.6,212.3,99.9
		c95.3,55.3,174.4,110.6,192.3,134.6c0.7,0.9,1.4,1.9,2,2.8l19.9-34.6c0.2-0.3,0.4-0.6,0.5-0.8c0.7-1.1,1-1.6-1.2-4.7
		c-17.3-23.7-96.3-79-192.1-134.5c-95.9-55.6-183.1-96.6-212.1-99.8c-0.7-0.1-1.2-0.1-1.7-0.1c-1.7,0-1.9,0.4-2.4,1.1
		c-0.2,0.4-0.5,0.8-0.9,1.3L405.5,667L405.5,667z M815.6,908l-0.7-1.3c-0.7-1.2-1.7-2.5-2.6-3.8c-17.8-23.8-96.6-79-191.8-134.2
		S438.3,672.5,408.9,669c-2.1-0.2-3.5-0.4-4.7-0.4h-1.5l0.6-1.3l21.1-36c0.3-0.3,0.6-0.7,0.8-1c0.7-1.1,1.4-1.9,3.8-1.9
		c0.5,0,1.1,0,1.9,0.1c29.2,3.2,116.7,44.3,212.8,100c96,55.7,175.2,111.2,192.6,135c2.6,3.6,2.4,4.8,1.2,6.6
		c-0.1,0.2-0.3,0.5-0.5,0.7L815.6,908L815.6,908z"/>
	<path id="_362332552" class="st2" d="M817.6,909.5c1.9-2.4,0-5.2-3.3-9.6c-17.5-23.4-94.9-78-192.1-134.4s-183.1-96.4-211.9-99.9
		c-5.3-0.6-8.6-1-9.9,2s4,10.1,4,10.1c-1.2-3.4-3-6.9,2-6.4c28.4,3.1,114.7,43.2,212.4,99.9S794.3,882.8,811.1,906
		c3,4.1,0,4.3-3.9,4.9C813.5,911.1,815.5,912,817.6,909.5L817.6,909.5z"/>
	<path id="_362332144" class="st3" d="M812.6,910.4c0.3,0,0.5,0,0.8,0l0,0c1.8,0,2.6-0.3,3.6-1.5c1.4-1.8,0-4.1-3.3-8.5
		c-17.8-23.8-96.7-79-191.8-134.1c-95.2-55.2-182.2-96.2-211.6-99.8c-2-0.2-3.7-0.4-5-0.4c-2.3,0-3.4,0.5-4,1.9
		c-0.4,1,0.2,2.9,1.1,4.8c0.1-0.4,0.2-0.8,0.4-1.1c0.6-0.9,1.8-1.3,3.9-1.1c29.1,3.2,116.6,44.3,212.7,100s175.3,111.2,192.6,135
		c0.8,1.1,1.8,2.7,1.2,4C813,909.9,812.8,910.2,812.6,910.4L812.6,910.4z M813.4,912.1L813.4,912.1c-0.7,0-1.5-0.1-2.5-0.1
		c-1-0.1-2.2-0.1-3.5-0.2l-0.1-1.7l0.6-0.1c1.7-0.2,3.5-0.5,3.8-1.1c0.1-0.2,0.1-0.8-1-2.4c-17.2-23.6-96.2-78.9-192.1-134.5
		s-183.2-96.7-212.1-99.8c-1.2-0.2-2.1,0-2.3,0.3c-0.4,0.6,0.2,2.4,0.8,3.9l0.4,1l-1.5,0.8c-0.6-0.8-5.6-7.6-4.1-11
		c1.1-2.6,3.5-2.9,5.5-2.9c1.4,0,3.1,0.2,5.2,0.4c29.6,3.6,116.9,44.7,212.2,100C718,820.1,797.1,875.4,815,899.4
		c3.1,4.1,5.7,7.6,3.3,10.6C816.8,911.7,815.3,912.1,813.4,912.1L813.4,912.1z"/>
	<path id="_362332864" class="st2" d="M841.7,868.4c1.7-2.3-0.3-5.7-3.5-10c-17.5-23.3-94.9-78-192.1-134.4S463,627.6,434.2,624.1
		c-5.3-0.6-8.2-0.8-9.9,1.9c-0.4,2.4-0.4,1.5,1.1,5.2c0,0-0.1-2,4.9-1.4c28.4,3.1,114.7,43.3,212.4,99.9
		c97.7,56.6,175.5,111.6,192.4,134.7c3,4.2,1.9,3.4,1.7,5.3C838.6,869.6,839.3,870.2,841.7,868.4L841.7,868.4z"/>
	<path id="_362332696" class="st3" d="M428.7,629c0.5,0,1.1,0,1.7,0.1c29.2,3.2,116.7,44.3,212.7,100s175.2,111.2,192.6,135
		c2.2,3,2.4,3.7,2.1,4.9c0.1,0,0.1,0,0.2,0c1,0,1.6,0,3-1.1c1.2-1.8-0.5-4.8-3.6-8.9c-17.9-23.8-96.7-79-191.8-134.1
		C550.5,669.6,463.5,628.6,434,625c-5.5-0.7-7.7-0.6-9,1.4l-0.1,0.3c-0.2,1.2-0.2,1.2,0.4,2.5c0.1,0.1,0.1,0.3,0.2,0.5
		C426.3,629.2,427.3,629,428.7,629L428.7,629z M835.8,870.8l0.1-1.1c0.1-0.5,0.2-0.9,0.3-1.2c0.2-0.5,0.2-0.7-1.8-3.5
		c-17.3-23.6-96.3-78.9-192.1-134.5c-95.9-55.6-183.1-96.7-212.1-99.8c-3.1-0.3-4,0.4-4,0.6l-1.6,0.3c-0.3-0.8-0.6-1.4-0.8-1.8
		c-0.7-1.7-0.8-1.9-0.5-3.4l0.2-0.7c1.5-2.4,3.8-2.7,5.8-2.7c1.3,0,2.8,0.2,4.8,0.4c29.7,3.6,116.9,44.7,212.2,100
		C741.6,778.6,820.7,834,838.6,858c3.1,4.1,5.7,8.1,3.5,11l-0.2,0.2c-1.9,1.5-3,1.5-4.1,1.5c-0.4,0-0.7,0-1.2,0.1H835.8L835.8,870.8
		z"/>
	<path id="_362332768" class="st4" d="M481.1,793.5c0,77.2,63.2,139.9,140.5,139.9c77.2,0,139.7-62.6,139.7-139.9V612.6H481.1V793.5
		z"/>
	<path id="_362332648" class="st3" d="M481.9,613.4v180c0,76.7,62.6,139,139.6,139c76.6,0,138.8-62.4,138.8-139v-180H481.9
		L481.9,613.4z M621.5,934.2c-77.9,0-141.3-63.1-141.3-140.7V611.8H762v181.7C762,871.1,699,934.2,621.5,934.2z"/>
	<path id="_362332840" class="st5" d="M484.4,793c0,75.4,61.7,136.5,137.1,136.5S757.8,868.4,757.8,793V616.5H484.4V793L484.4,793z"
		/>
	<polygon id="_362331952" class="st2" points="704.5,834.2 706.1,835.9 704.1,838 705.7,839.6 707.8,837.5 709.4,839.1 707.3,841.2 
		709,842.8 711,840.8 712.7,842.4 710.6,844.5 709.8,843.7 708.8,844.8 702.2,838.2 703.3,837.1 702.4,836.3 	"/>
	<polygon id="_362331808" class="st2" points="717,838.1 714.8,840.3 715.6,841.1 714.6,842.2 721.2,848.8 722.3,847.7 723.1,848.6 
		725.3,846.4 723.6,844.7 721.4,846.9 719.7,845.2 721.9,843 720.4,841.4 718.1,843.6 716.5,841.9 718.7,839.7 	"/>
	<polygon id="_362331640" class="st2" points="720.9,850.7 718.9,852.8 719.7,853.6 718.6,854.7 725.2,861.2 726.3,860.2 727.1,861 
		729.2,858.9 727.5,857.3 725.5,859.3 723.8,857.7 725.8,855.6 724.2,854 722.2,856.1 720.5,854.4 722.6,852.3 	"/>
	<polygon id="_362331832" class="st2" points="694.6,845.8 693.6,846.8 716.7,869.8 717.7,868.8 	"/>
	<polygon id="_362331496" class="st2" points="692.5,847.9 691.4,849 714.5,872 715.5,870.9 	"/>
	<path id="_362331352" class="st2" d="M704.4,883.3c1.5-2,2.7-4.2,3.5-6.4l2.5-2.5l0.8,0.8l2.1-2.1l-23-23l-2.1,2.1l0.8,0.8
		l-2.5,2.5c-2.2,0.8-4.3,2-6.4,3.5l4,4c5.6-4.1,12.6-4.5,16.6-0.5s3.6,11-0.5,16.6L704.4,883.3L704.4,883.3z"/>
	<path id="_362331592" class="st2" d="M704.7,885.7c-0.7,1.3-1.6,2.6-2.5,3.9l-28.4-28.4c1.2-0.9,2.6-1.8,3.9-2.5l7,7
		c4.7-4.7,11.5-5.6,15.1-2s2.8,10.4-2,15.1L704.7,885.7z M695.3,876.4c3-3,3.5-7.2,1.2-9.5s-6.5-1.7-9.5,1.2L695.3,876.4z"/>
	<path id="_362331424" class="st2" d="M694.7,873.4c1.7-1.7,2-4.1,0.7-5.4c-1.3-1.3-3.8-1-5.4,0.7L694.7,873.4z"/>
	<path id="_362331664" class="st2" d="M706.7,845.1l-5.3,5.3l-4.9-4.9l5.3-5.3L706.7,845.1L706.7,845.1z M702.4,843.4l-2.4,2.4
		l1.1,1.1l2.4-2.4L702.4,843.4z"/>
	<path id="_362331376" class="st2" d="M723.3,861.6l-5.3,5.3l-4.9-4.9l5.3-5.3L723.3,861.6z M718.8,859.9l-2.4,2.4l1.1,1.1l2.4-2.4
		L718.8,859.9z"/>
	<path id="_362331520" class="st2" d="M719.2,849l-9.5,9.6l-4.9-4.9l9.5-9.5L719.2,849L719.2,849z M713.2,849l-3.8,3.8l1.1,1.1
		l3.8-3.8L713.2,849z"/>
	<polygon id="_362330632" class="st2" points="513.5,858.9 515.2,857.2 517.3,859.3 518.9,857.7 516.9,855.6 518.5,854 520.5,856.1 
		522.2,854.4 520.1,852.3 521.8,850.7 523.8,852.8 523,853.5 524.1,854.6 517.5,861.2 516.5,860.1 515.6,861 	"/>
	<polygon id="_362331016" class="st2" points="517.4,846.4 519.6,848.6 520.4,847.7 521.5,848.8 528.1,842.2 527.1,841.1 
		527.9,840.3 525.7,838.1 524,839.8 526.2,842 524.5,843.6 522.3,841.4 520.7,843 522.9,845.2 521.3,846.9 519,844.7 	"/>
	<polygon id="_362330992" class="st2" points="530,842.4 532.1,844.5 532.9,843.7 534,844.7 540.6,838.2 539.5,837.1 540.3,836.3 
		538.2,834.2 536.6,835.8 538.7,837.9 537,839.6 534.9,837.5 533.3,839.1 535.4,841.2 533.7,842.8 531.7,840.8 	"/>
	<polygon id="_362330824" class="st2" points="525.1,868.7 526.1,869.7 549.1,846.7 548.1,845.7 	"/>
	<polygon id="_362331112" class="st2" points="527.2,870.9 528.3,871.9 551.3,848.9 550.2,847.8 	"/>
	<path id="_362331088" class="st2" d="M562.6,859c-2-1.5-4.2-2.7-6.4-3.5l-2.5-2.5l0.8-0.8l-2.1-2.1l-23,23l2.1,2.1l0.8-0.8l2.5,2.5
		c0.8,2.2,2,4.3,3.5,6.4l4-4c-4.1-5.6-4.5-12.6-0.5-16.6s11-3.6,16.6,0.5L562.6,859L562.6,859z"/>
	<path id="_362331064" class="st2" d="M565,858.7c1.3,0.7,2.6,1.6,3.9,2.5l-28.4,28.4c-0.9-1.2-1.8-2.6-2.5-3.9l7-7
		c-4.7-4.7-5.6-11.5-2-15.1s10.4-2.8,15.1,2L565,858.7L565,858.7z M555.7,868.1c-3-3-7.2-3.5-9.5-1.2s-1.7,6.5,1.2,9.5L555.7,868.1z
		"/>
	<path id="_362331280" class="st2" d="M552.8,868.7c-1.7-1.7-4.1-2-5.4-0.7c-1.3,1.3-1,3.7,0.7,5.4L552.8,868.7L552.8,868.7z"/>
	<path id="_362330944" class="st2" d="M524.4,856.6l5.3,5.3l-4.9,4.9l-5.3-5.3L524.4,856.6L524.4,856.6z M522.8,861l2.4,2.4l1.1-1.1
		l-2.4-2.4L522.8,861z"/>
	<path id="_362330872" class="st2" d="M540.9,840.1l5.3,5.3l-4.9,4.9L536,845L540.9,840.1L540.9,840.1z M539.2,844.6l2.4,2.4
		l1.1-1.1l-2.4-2.4L539.2,844.6z"/>
	<path id="_362329840" class="st2" d="M528.3,844.1l9.5,9.5l-4.9,4.9l-9.5-9.5L528.3,844.1L528.3,844.1z M528.3,850.1l3.8,3.8
		l1.1-1.1l-3.8-3.8L528.3,850.1z"/>
	<polygon id="_362330248" class="st2" points="496.8,732.8 499.2,732.8 499.2,735.8 501.5,735.8 501.5,732.8 503.7,732.8 
		503.7,735.8 506.1,735.8 506.1,732.8 508.4,732.8 508.4,735.8 507.3,735.8 507.3,737.3 498,737.3 498,735.8 496.8,735.8 	"/>
	<polygon id="_362330176" class="st2" points="508.4,726.7 508.4,729.8 509.5,729.8 509.5,731.3 518.9,731.3 518.9,729.8 
		520.1,729.8 520.1,726.7 517.7,726.7 517.7,729.8 515.4,729.8 515.4,726.7 513.1,726.7 513.1,729.8 510.7,729.8 510.7,726.7 	"/>
	<polygon id="_362330152" class="st2" points="520.1,732.8 520.1,735.8 521.2,735.8 521.2,737.3 530.5,737.3 530.5,735.8 
		531.7,735.8 531.7,732.8 529.4,732.8 529.4,735.8 527,735.8 527,732.8 524.7,732.8 524.7,735.8 522.4,735.8 522.4,732.8 	"/>
	<polygon id="_362330128" class="st2" points="498,749.3 530.5,749.3 530.5,747.9 498,747.9 	"/>
	<polygon id="_362330392" class="st2" points="498,752.5 530.5,752.5 530.5,750.9 498,750.9 	"/>
	<path id="_362330032" class="st2" d="M531.4,767.5c-0.4-2.5-1-4.9-2-7V757h1.2v-3H498v3h1.2v3.6c-0.9,2.1-1.6,4.5-2,7h5.7
		c1.1-6.9,5.8-12.1,11.4-12.1c5.6,0,10.3,5.2,11.4,12.1L531.4,767.5L531.4,767.5z"/>
	<path id="_362329888" class="st2" d="M533.4,769.1c0.4,1.5,0.7,3,0.9,4.5h-40.2c0.2-1.5,0.6-3.1,1-4.5h9.9c0-6.7,4.2-12.1,9.3-12.1
		c5.1,0,9.3,5.4,9.3,12.1H533.4z M520.1,769.1c0-4.2-2.6-7.6-5.8-7.6s-5.9,3.4-5.9,7.6H520.1z"/>
	<path id="_362329936" class="st2" d="M517.6,767.5c0-2.4-1.5-4.4-3.4-4.4s-3.4,1.9-3.4,4.4H517.6L517.6,767.5z"/>
	<path id="_362330080" class="st2" d="M506.1,746.3h-6.9v-7.5h6.9V746.3z M501.8,744.2h1.6v-3.4h-1.6V744.2z"/>
	<path id="_362329912" class="st2" d="M529.4,746.3h-7v-7.5h7V746.3z M525.1,744.2h1.6v-3.4h-1.6V744.2z"/>
	<path id="_362329600" class="st2" d="M517.7,746.3h-7v-13.5h7V746.3z M513.4,742.4h1.6V737h-1.6V742.4z"/>
	<polygon id="_362329192" class="st2" points="710.2,732.8 712.6,732.8 712.6,735.8 714.9,735.8 714.9,732.8 717.2,732.8 
		717.2,735.8 719.5,735.8 719.5,732.8 721.8,732.8 721.8,735.8 720.8,735.8 720.8,737.3 711.4,737.3 711.4,735.8 710.2,735.8 	"/>
	<polygon id="_362329504" class="st2" points="721.8,726.7 721.8,729.8 723,729.8 723,731.3 732.4,731.3 732.4,729.8 733.5,729.8 
		733.5,726.7 731.1,726.7 731.1,729.8 728.8,729.8 728.8,726.7 726.6,726.7 726.6,729.8 724.2,729.8 724.2,726.7 	"/>
	<polygon id="_362329528" class="st2" points="733.5,732.8 733.5,735.8 734.7,735.8 734.7,737.3 744,737.3 744,735.8 745.2,735.8 
		745.2,732.8 742.8,732.8 742.8,735.8 740.5,735.8 740.5,732.8 738.2,732.8 738.2,735.8 735.9,735.8 735.9,732.8 	"/>
	<polygon id="_362329792" class="st2" points="711.4,749.3 744,749.3 744,747.9 711.4,747.9 	"/>
	<polygon id="_362329672" class="st2" points="711.4,752.5 744,752.5 744,750.9 711.4,750.9 	"/>
	<path id="_362329720" class="st2" d="M744.9,767.5c-0.4-2.5-1-4.9-2-7V757h1.2v-3h-32.6v3h1.2v3.6c-0.9,2.1-1.6,4.5-2,7h5.6
		c1.1-6.9,5.8-12.1,11.4-12.1s10.3,5.2,11.4,12.1L744.9,767.5L744.9,767.5z"/>
	<path id="_362329288" class="st2" d="M746.8,769.1c0.4,1.5,0.7,3,0.9,4.5h-40.2c0.2-1.5,0.6-3.1,1-4.5h9.9c0-6.7,4.2-12.1,9.3-12.1
		s9.3,5.4,9.3,12.1H746.8L746.8,769.1z M733.5,769.1c0-4.2-2.6-7.6-5.9-7.6c-3.2,0-5.9,3.4-5.9,7.6H733.5z"/>
	<path id="_362329048" class="st2" d="M731,767.5c0-2.4-1.5-4.3-3.4-4.3s-3.4,1.9-3.4,4.3H731z"/>
	<path id="_362329648" class="st2" d="M719.5,746.3h-6.9v-7.5h6.9V746.3z M715.3,744.2h1.6v-3.4h-1.6V744.2z"/>
	<path id="_362328472" class="st2" d="M742.8,746.3h-7v-7.5h7V746.3z M738.5,744.2h1.6v-3.4h-1.6V744.2z"/>
	<path id="_362328280" class="st2" d="M731.1,746.3h-7v-13.5h7V746.3z M726.9,742.4h1.6V737h-1.6V742.4z"/>
	<polygon id="_362328928" class="st2" points="710.2,632.1 712.6,632.1 712.6,635 714.9,635 714.9,632.1 717.2,632.1 717.2,635 
		719.5,635 719.5,632.1 721.8,632.1 721.8,635 720.8,635 720.8,636.5 711.4,636.5 711.4,635 710.2,635 	"/>
	<polygon id="_362328688" class="st2" points="721.8,625.9 721.8,629.1 723,629.1 723,630.6 732.4,630.6 732.4,629.1 733.5,629.1 
		733.5,625.9 731.1,625.9 731.1,629.1 728.8,629.1 728.8,625.9 726.6,625.9 726.6,629.1 724.2,629.1 724.2,625.9 	"/>
	<polygon id="_362328424" class="st2" points="733.5,632.1 733.5,635 734.7,635 734.7,636.5 744,636.5 744,635 745.2,635 
		745.2,632.1 742.8,632.1 742.8,635 740.5,635 740.5,632.1 738.2,632.1 738.2,635 735.9,635 735.9,632.1 	"/>
	<polygon id="_362328304" class="st2" points="711.4,648.6 744,648.6 744,647.2 711.4,647.2 	"/>
	<polygon id="_362328640" class="st2" points="711.4,651.7 744,651.7 744,650.2 711.4,650.2 	"/>
	<path id="_362328520" class="st2" d="M744.9,666.8c-0.4-2.5-1-4.9-2-7v-3.6h1.2v-3h-32.6v3h1.2v3.6c-0.9,2.1-1.6,4.5-2,7h5.6
		c1.1-6.9,5.8-12.1,11.4-12.1s10.3,5.2,11.4,12.1H744.9L744.9,666.8z"/>
	<path id="_362328328" class="st2" d="M746.8,668.3c0.4,1.5,0.7,3,0.9,4.5h-40.2c0.2-1.5,0.6-3.1,1-4.5h9.9c0-6.7,4.2-12.1,9.3-12.1
		s9.3,5.4,9.3,12.1H746.8L746.8,668.3z M733.5,668.4c0-4.2-2.6-7.6-5.9-7.6c-3.2,0-5.9,3.4-5.9,7.6H733.5z"/>
	<path id="_362329000" class="st2" d="M731,666.7c0-2.4-1.5-4.4-3.4-4.4s-3.4,1.9-3.4,4.4H731z"/>
	<path id="_362328568" class="st2" d="M719.5,645.6h-6.9v-7.5h6.9V645.6z M715.3,643.4h1.6V640h-1.6V643.4z"/>
	<path id="_362328160" class="st2" d="M742.8,645.6h-7v-7.5h7V645.6z M738.5,643.4h1.6V640h-1.6V643.4z"/>
	<path id="_362328040" class="st2" d="M731.1,645.6h-7v-13.5h7V645.6z M726.9,641.7h1.6v-5.4h-1.6V641.7z"/>
	<polygon id="_362327920" class="st2" points="496.7,632.1 499.1,632.1 499.1,635 501.5,635 501.5,632.1 503.7,632.1 503.7,635 
		506,635 506,632.1 508.4,632.1 508.4,635 507.3,635 507.3,636.5 498,636.5 498,635 496.7,635 	"/>
	<polygon id="_362328256" class="st2" points="508.4,625.9 508.4,629.1 509.5,629.1 509.5,630.6 518.9,630.6 518.9,629.1 
		520.1,629.1 520.1,625.9 517.7,625.9 517.7,629.1 515.4,629.1 515.4,625.9 513.1,625.9 513.1,629.1 510.7,629.1 510.7,625.9 	"/>
	<polygon id="_362327584" class="st2" points="520.1,632.1 520.1,635 521.2,635 521.2,636.5 530.5,636.5 530.5,635 531.7,635 
		531.7,632.1 529.4,632.1 529.4,635 527,635 527,632.1 524.7,632.1 524.7,635 522.4,635 522.4,632.1 	"/>
	<polygon id="_362327776" class="st2" points="498,648.6 530.5,648.6 530.5,647.2 498,647.2 	"/>
	<polygon id="_362328112" class="st2" points="498,651.7 530.5,651.7 530.5,650.2 498,650.2 	"/>
	<path id="_362327944" class="st2" d="M531.4,666.8c-0.4-2.5-1-4.9-2-7v-3.6h1.2v-3H498v3h1.2v3.6c-0.9,2.1-1.6,4.5-2,7h5.6
		c1.1-6.9,5.8-12.1,11.4-12.1c5.6,0,10.3,5.2,11.4,12.1H531.4L531.4,666.8z"/>
	<path id="_362327824" class="st2" d="M533.4,668.3c0.4,1.5,0.7,3,0.9,4.5h-40.2c0.2-1.5,0.5-3.1,1-4.5h9.9c0-6.7,4.2-12.1,9.3-12.1
		c5.1,0,9.3,5.4,9.3,12.1H533.4L533.4,668.3z M520.1,668.4c0-4.2-2.6-7.6-5.9-7.6c-3.2,0-5.9,3.4-5.9,7.6H520.1z"/>
	<path id="_362327680" class="st2" d="M517.6,666.7c0-2.4-1.5-4.4-3.4-4.4s-3.4,1.9-3.4,4.4H517.6z"/>
	<path id="_357348808" class="st2" d="M506,645.6h-6.9v-7.5h6.9V645.6z M501.8,643.4h1.6V640h-1.6V643.4z"/>
	<path id="_357354592" class="st2" d="M529.4,645.6h-7v-7.5h7V645.6z M525.1,643.4h1.6V640h-1.6V643.4z"/>
	<path id="_357347584" class="st2" d="M517.7,645.6h-7v-13.5h7V645.6z M513.4,641.7h1.6v-5.4h-1.6V641.7z"/>
	<polygon id="_357341488" class="st2" points="603.6,632 606,632 606,634.9 608.4,634.9 608.4,632 610.6,632 610.6,634.9 
		612.9,634.9 612.9,632 615.3,632 615.3,634.9 614.2,634.9 614.2,636.4 604.9,636.4 604.9,634.9 603.6,634.9 	"/>
	<polygon id="_357333832" class="st2" points="615.3,625.8 615.3,628.9 616.4,628.9 616.4,630.5 625.8,630.5 625.8,628.9 627,628.9 
		627,625.8 624.6,625.8 624.6,628.9 622.2,628.9 622.2,625.8 620,625.8 620,628.9 617.6,628.9 617.6,625.8 	"/>
	<polygon id="_357359104" class="st2" points="627,632 627,634.9 628.1,634.9 628.1,636.4 637.4,636.4 637.4,634.9 638.6,634.9 
		638.6,632 636.3,632 636.3,634.9 633.9,634.9 633.9,632 631.6,632 631.6,634.9 629.3,634.9 629.3,632 	"/>
	<polygon id="_357354568" class="st2" points="604.9,648.5 637.4,648.5 637.4,647.1 604.9,647.1 	"/>
	<polygon id="_357354472" class="st2" points="604.9,651.6 637.4,651.6 637.4,650.1 604.9,650.1 	"/>
	<path id="_357354040" class="st2" d="M638.3,666.7c-0.4-2.5-1-4.9-2-7v-3.5h1.2v-3h-32.6v3h1.2v3.6c-0.9,2.1-1.7,4.5-2,7h5.6
		c1.1-6.9,5.8-12.1,11.4-12.1c5.6,0,10.3,5.2,11.4,12.1L638.3,666.7L638.3,666.7z"/>
	<path id="_357353992" class="st2" d="M640.3,668.2c0.4,1.5,0.7,3,0.9,4.5H601c0.2-1.5,0.6-3.1,1-4.5h9.9c0-6.7,4.2-12.1,9.3-12.1
		s9.3,5.4,9.3,12.1H640.3L640.3,668.2z M627,668.3c0-4.2-2.6-7.6-5.9-7.6c-3.2,0-5.9,3.4-5.9,7.6H627z"/>
	<path id="_357354400" class="st2" d="M624.5,666.6c0-2.4-1.5-4.4-3.4-4.4s-3.4,1.9-3.4,4.4H624.5z"/>
	<path id="_357354136" class="st2" d="M612.9,645.5H606V638h6.9V645.5z M608.7,643.3h1.6V640h-1.6V643.3z"/>
	<path id="_357354160" class="st2" d="M636.3,645.5h-7V638h7V645.5z M632,643.3h1.6V640H632V643.3z"/>
	<path id="_357354616" class="st2" d="M624.6,645.5h-7V632h7V645.5z M620.3,641.6h1.6v-5.4h-1.6V641.6z"/>
	<path id="_357354064" class="st4" d="M540.7,789.1c0,46.7,36.3,84.6,80.6,84.6c44.4,0,80.2-37.9,80.2-84.6V679.7H540.7V789.1
		L540.7,789.1z"/>
	<path id="_357354304" class="st3" d="M541.6,680.5V789c0,46.2,35.8,83.7,79.8,83.7c43.8,0,79.4-37.6,79.4-83.7V680.5H541.6
		L541.6,680.5z M621.4,874.5c-44.9,0-81.5-38.3-81.5-85.4V678.9h162.5v110.2C702.4,836.2,666.1,874.5,621.4,874.5L621.4,874.5z"/>
	<path id="_357354664" class="st6" d="M602.5,719.1c0,11,8.4,19.8,18.7,19.8s18.6-8.9,18.6-19.8v-25.6h-37.2L602.5,719.1
		L602.5,719.1z"/>
	<path id="_357353752" class="st3" d="M602.7,693.7v25.4c0,10.8,8.3,19.6,18.4,19.6c10.1,0,18.4-8.8,18.4-19.6v-25.4H602.7
		L602.7,693.7z M621.2,739.2c-10.4,0-18.9-9-18.9-20v-25.9h37.6v25.9C639.9,730.2,631.5,739.2,621.2,739.2z"/>
	<path id="_357353560" class="st4" d="M621.1,716.4c1.9,0,3.5-1.6,3.5-3.5s-1.6-3.5-3.5-3.5s-3.5,1.6-3.5,3.5
		C617.6,714.9,619.2,716.4,621.1,716.4z"/>
	<path id="_357353488" class="st4" d="M612.3,704.9c1.9,0,3.5-1.5,3.5-3.5c0-1.9-1.6-3.5-3.5-3.5s-3.5,1.6-3.5,3.5
		S610.3,704.9,612.3,704.9z"/>
	<path id="_357353824" class="st4" d="M629.9,704.9c-1.9,0-3.5-1.5-3.5-3.5c0-1.9,1.6-3.5,3.5-3.5s3.5,1.6,3.5,3.5
		S631.9,704.9,629.9,704.9z"/>
	<path id="_357353296" class="st4" d="M612.3,721c1.9,0,3.5,1.5,3.5,3.5c0,1.9-1.6,3.5-3.5,3.5s-3.5-1.6-3.5-3.5
		S610.3,721,612.3,721z"/>
	<path id="_357353848" class="st4" d="M629.9,721c-1.9,0-3.5,1.5-3.5,3.5c0,1.9,1.6,3.5,3.5,3.5s3.5-1.6,3.5-3.5
		S631.9,721,629.9,721z"/>
	<path id="_357353776" class="st6" d="M602.5,778.6c0,11,8.4,19.8,18.7,19.8s18.6-8.9,18.6-19.8V753h-37.2L602.5,778.6L602.5,778.6z
		"/>
	<path id="_357353536" class="st3" d="M602.7,753.2v25.4c0,10.8,8.3,19.6,18.4,19.6c10.1,0,18.4-8.8,18.4-19.6v-25.4H602.7
		L602.7,753.2z M621.2,798.7c-10.4,0-18.9-9-18.9-20.1v-25.8h37.6v25.8C639.9,789.7,631.5,798.7,621.2,798.7z"/>
	<path id="_357353416" class="st4" d="M621.1,775.9c1.9,0,3.5-1.5,3.5-3.5c0-1.9-1.6-3.5-3.5-3.5s-3.5,1.5-3.5,3.5
		S619.2,775.9,621.1,775.9z"/>
	<path id="_357353800" class="st4" d="M612.3,764.4c1.9,0,3.5-1.6,3.5-3.5s-1.6-3.5-3.5-3.5s-3.5,1.6-3.5,3.5
		C608.8,762.9,610.3,764.4,612.3,764.4z"/>
	<path id="_357352840" class="st4" d="M629.9,764.4c-1.9,0-3.5-1.6-3.5-3.5s1.6-3.5,3.5-3.5s3.5,1.6,3.5,3.5
		C633.4,762.9,631.9,764.4,629.9,764.4z"/>
	<path id="_357352696" class="st4" d="M612.3,780.5c1.9,0,3.5,1.6,3.5,3.5s-1.6,3.5-3.5,3.5s-3.5-1.6-3.5-3.5
		S610.3,780.5,612.3,780.5z"/>
	<path id="_357352648" class="st4" d="M629.9,780.5c-1.9,0-3.5,1.6-3.5,3.5s1.6,3.5,3.5,3.5s3.5-1.6,3.5-3.5
		S631.9,780.5,629.9,780.5z"/>
	<path id="_357352600" class="st6" d="M602.5,838.2c0,11,8.4,19.8,18.7,19.8s18.6-8.9,18.6-19.8v-25.6h-37.2L602.5,838.2
		L602.5,838.2z"/>
	<path id="_357352744" class="st3" d="M602.7,812.7v25.4c0,10.8,8.3,19.6,18.4,19.6c10.1,0,18.4-8.8,18.4-19.6v-25.4H602.7
		L602.7,812.7z M621.2,858.2c-10.4,0-18.9-9-18.9-20v-25.9h37.6v25.9C639.9,849.2,631.5,858.2,621.2,858.2z"/>
	<path id="_357353056" class="st4" d="M621.1,835.5c1.9,0,3.5-1.6,3.5-3.5s-1.6-3.5-3.5-3.5s-3.5,1.6-3.5,3.5
		S619.2,835.5,621.1,835.5z"/>
	<path id="_357353032" class="st4" d="M612.3,823.9c1.9,0,3.5-1.6,3.5-3.5s-1.6-3.5-3.5-3.5s-3.5,1.6-3.5,3.5
		C608.8,822.4,610.3,823.9,612.3,823.9z"/>
	<path id="_357353104" class="st4" d="M629.9,823.9c-1.9,0-3.5-1.6-3.5-3.5s1.6-3.5,3.5-3.5s3.5,1.6,3.5,3.5
		C633.4,822.4,631.9,823.9,629.9,823.9z"/>
	<path id="_357352552" class="st4" d="M612.3,840.1c1.9,0,3.5,1.5,3.5,3.5c0,1.9-1.6,3.5-3.5,3.5s-3.5-1.5-3.5-3.5
		S610.3,840.1,612.3,840.1z"/>
	<path id="_357353008" class="st4" d="M629.9,840.1c-1.9,0-3.5,1.5-3.5,3.5c0,1.9,1.6,3.5,3.5,3.5s3.5-1.5,3.5-3.5
		S631.9,840.1,629.9,840.1z"/>
	<path id="_357352912" class="st6" d="M554.4,778.6c0,11,8.4,19.8,18.7,19.8s18.6-8.9,18.6-19.8V753h-37.2L554.4,778.6L554.4,778.6z
		"/>
	<path id="_357351664" class="st3" d="M554.6,753.2v25.4c0,10.8,8.3,19.6,18.5,19.6c10.1,0,18.3-8.8,18.3-19.6v-25.4H554.6z
		 M573,798.7c-10.4,0-18.9-9-18.9-20.1v-25.8h37.6v25.8C591.8,789.7,583.4,798.7,573,798.7L573,798.7z"/>
	<path id="_357351616" class="st4" d="M573,775.9c1.9,0,3.5-1.5,3.5-3.5c0-1.9-1.6-3.5-3.5-3.5s-3.5,1.5-3.5,3.5
		S571.1,775.9,573,775.9z"/>
	<path id="_357352240" class="st4" d="M564.1,764.4c1.9,0,3.5-1.6,3.5-3.5s-1.5-3.5-3.5-3.5c-1.9,0-3.5,1.6-3.5,3.5
		C560.7,762.9,562.2,764.4,564.1,764.4z"/>
	<path id="_357351952" class="st4" d="M581.8,764.4c-1.9,0-3.5-1.6-3.5-3.5s1.6-3.5,3.5-3.5s3.5,1.6,3.5,3.5
		C585.3,762.9,583.7,764.4,581.8,764.4z"/>
	<path id="_357352192" class="st4" d="M564.1,780.5c1.9,0,3.5,1.6,3.5,3.5s-1.5,3.5-3.5,3.5c-1.9,0-3.5-1.6-3.5-3.5
		C560.7,782.1,562.2,780.5,564.1,780.5z"/>
	<path id="_357351928" class="st4" d="M581.8,780.5c-1.9,0-3.5,1.6-3.5,3.5s1.6,3.5,3.5,3.5s3.5-1.6,3.5-3.5
		S583.7,780.5,581.8,780.5z"/>
	<path id="_357352000" class="st6" d="M687.8,778.6c0,11-8.4,19.8-18.7,19.8s-18.6-8.9-18.6-19.8V753h37.2L687.8,778.6L687.8,778.6z
		"/>
	<path id="_357352264" class="st3" d="M650.8,753.2v25.4c0,10.8,8.2,19.6,18.4,19.6s18.4-8.8,18.4-19.6v-25.4H650.8z M669.2,798.7
		c-10.4,0-18.8-9-18.8-20.1v-25.8H688v25.8C688,789.7,679.6,798.7,669.2,798.7z"/>
	<path id="_357351808" class="st4" d="M669.2,775.9c-1.9,0-3.5-1.5-3.5-3.5c0-1.9,1.6-3.5,3.5-3.5s3.5,1.5,3.5,3.5
		S671.1,775.9,669.2,775.9z"/>
	<path id="_357352120" class="st4" d="M678.1,764.4c-1.9,0-3.5-1.6-3.5-3.5s1.5-3.5,3.5-3.5c1.9,0,3.5,1.6,3.5,3.5
		C681.5,762.9,680,764.4,678.1,764.4z"/>
	<path id="_357350968" class="st4" d="M660.4,764.4c1.9,0,3.5-1.6,3.5-3.5s-1.6-3.5-3.5-3.5s-3.5,1.6-3.5,3.5
		C656.9,762.9,658.5,764.4,660.4,764.4z"/>
	<path id="_357351496" class="st4" d="M678.1,780.5c-1.9,0-3.5,1.6-3.5,3.5s1.5,3.5,3.5,3.5c1.9,0,3.5-1.6,3.5-3.5
		C681.5,782.1,680,780.5,678.1,780.5z"/>
	<path id="_357351352" class="st4" d="M660.4,780.5c1.9,0,3.5,1.6,3.5,3.5s-1.6,3.5-3.5,3.5s-3.5-1.6-3.5-3.5
		S658.5,780.5,660.4,780.5z"/>
</g>
</svg>
