<?xml version="1.0" encoding="utf-8"?>
<!-- Generator: Adobe Illustrator 24.1.1, SVG Export Plug-In . SVG Version: 6.00 Build 0)  -->
<svg version="1.1" id="Layer_1" xmlns="http://www.w3.org/2000/svg" xmlns:xlink="http://www.w3.org/1999/xlink" x="0px" y="0px"
	 viewBox="0 0 1535.8 1535.8" style="enable-background:new 0 0 1535.8 1535.8;" xml:space="preserve">
<style type="text/css">
	.st0{fill-rule:evenodd;clip-rule:evenodd;fill:#EEEEEE;}
	.st1{fill-rule:evenodd;clip-rule:evenodd;fill:#CF142B;}
	.st2{fill-rule:evenodd;clip-rule:evenodd;fill:#00247D;}
</style>
<g id="Layer_x0020_1">
	<rect x="0.2" y="-0.5" class="st0" width="1543.1" height="1536.7"/>
	<polygon class="st1" points="1543.3,256.1 1024.8,555.1 1201.5,555.1 1543.3,358 	"/>
	<polygon class="st1" points="1543.3,1129.6 1338.4,1011.5 1161.6,1011.5 1543.3,1231.5 	"/>
	<polygon class="st1" points="0.2,310.3 0.2,412.6 246.2,555.1 423,555.1 	"/>
	<polygon class="st1" points="0.2,1334.5 559.9,1011.5 382.9,1011.5 0.2,1232.4 	"/>
	<polygon class="st2" points="1543.3,-0.5 976.2,-0.5 976.2,516.1 1543.3,188.9 	"/>
	<polygon class="st2" points="0.2,-0.5 0.2,179.8 580.8,516.1 580.8,-0.5 	"/>
	<polygon class="st2" points="1543.3,494.7 1439.1,555.1 1543.3,555.1 	"/>
	<polygon class="st2" points="1543.3,1011.5 1439.1,1011.5 1543.3,1071.3 	"/>
	<polygon class="st2" points="0.2,1385.8 0.2,1536.2 580.8,1536.2 580.8,1050.6 	"/>
	<polygon class="st2" points="1543.3,1377 976.2,1050.6 976.2,1536.2 1543.3,1536.2 	"/>
	<polygon class="st2" points="0.2,1011.5 0.2,1079.6 117.8,1011.5 	"/>
	<polygon class="st2" points="0.2,486.9 0.2,555.1 117.8,555.1 	"/>
	<polygon class="st1" points="897.1,646.4 897.1,-0.5 659.9,-0.5 659.9,646.4 0.2,646.4 0.2,920.4 659.9,920.4 659.9,1536.2 
		897.1,1536.2 897.1,920.4 1543.3,920.4 1543.3,646.4 	"/>
</g>
</svg>
